<svg xmlns="http://www.w3.org/2000/svg" viewBox="0 0 500 500"><g id="freepik--background-complete--inject-12"><path d="M451.32,207.72c-7-12.46-19.15-23.14-33.82-25.09-15.09-2-29.89,5.38-41.73,14.55a126.21,126.21,0,0,0-30,33.13c-4.63,7.46-9.36,16.12-18.07,18.55-8.2,2.28-16.82-2-23.43-7.18s-12.55-11.5-20.52-14.45c-20.76-7.69-43.92,10.75-65.48,5.43-18.57-4.58-27.46-24-39-38.65-19.06-24.12-52.18-38.06-83.36-33S41,218.48,36.71,248.41l427.09-.14C461.12,234.35,458.35,220.17,451.32,207.72Z" style="fill:#ebebeb"></path><path d="M117.35,99.61c.38-2.79-3.55-5.08-6.51-5.32a16.84,16.84,0,0,1-4.21-.36c-2.89-1-4-4.75-6.87-5.94-2.11-.89-4.54-.1-6.58.93s-4.07,2.33-6.36,2.47c-2,.13-4.15-.61-5.89.36-1.29.73-2,2.22-3.17,3.1A7.5,7.5,0,0,1,73.62,96a11.78,11.78,0,0,0-4.27.69,3.38,3.38,0,0,0-2.14,3.43Z" style="fill:#f5f5f5"></path><path d="M250.23,126.14c.38-2.79-3.55-5.08-6.51-5.32a16.84,16.84,0,0,1-4.21-.36c-2.89-1-4-4.75-6.87-5.94-2.11-.89-4.54-.1-6.58.93s-4.07,2.33-6.36,2.48c-2,.12-4.15-.61-5.88.36-1.3.72-2,2.21-3.17,3.1a7.61,7.61,0,0,1-4.15,1.12,11.57,11.57,0,0,0-4.27.7,3.38,3.38,0,0,0-2.14,3.42Z" style="fill:#f5f5f5"></path><path d="M468.1,124.5c.69-5-6.39-9.15-11.72-9.58-2.54-.2-5.17.19-7.58-.65-5.21-1.82-7.29-8.55-12.38-10.7-3.8-1.6-8.17-.17-11.86,1.68s-7.33,4.19-11.44,4.46c-3.58.22-7.47-1.1-10.61.65-2.33,1.3-3.55,4-5.71,5.58s-4.85,1.88-7.46,2-5.32.17-7.7,1.26-4.34,3.6-3.85,6.17Z" style="fill:#ebebeb"></path><path d="M262.54,74.72c.87-6.35-8.08-11.57-14.82-12.11-3.21-.26-6.54.23-9.58-.83-6.59-2.3-9.22-10.81-15.65-13.52-4.81-2-10.34-.22-15,2.12S198.23,55.68,193,56c-4.53.29-9.45-1.39-13.41.83-3,1.64-4.5,5-7.22,7s-6.13,2.38-9.44,2.56-6.72.21-9.73,1.59-5.49,4.56-4.87,7.81Z" style="fill:#ebebeb"></path></g><g id="freepik--Road--inject-12"><path d="M18.63,364.38l3.18-29.17,181.43,11.87a15.59,15.59,0,0,0,16.47-13.42L231.54,248h41.13l17.79,87.61a15.58,15.58,0,0,0,16,12.47l170.44-7.8v30.62L327.25,396.4A26.08,26.08,0,0,0,304,426l7,49.9-105.49,0,4.27-45.69a33.4,33.4,0,0,0-27.95-36.09Z" style="fill:#e0e0e0"></path><polygon points="259.95 326.95 250 326.95 252.36 284.23 256.68 284.24 259.95 326.95" style="fill:#f5f5f5"></polygon><polygon points="263.53 425.55 250 425.55 252.41 372.65 259.81 372.67 263.53 425.55" style="fill:#f5f5f5"></polygon><polygon points="324.52 374.82 323.56 366.55 376.28 361.94 377.71 367.43 324.52 374.82" style="fill:#f5f5f5"></polygon><polygon points="431.38 363.45 430.43 355.18 476.89 351.11 476.89 357.12 431.38 363.45" style="fill:#f5f5f5"></polygon><polygon points="188.63 369.89 189.59 361.62 136.87 357 135.44 362.5 188.63 369.89" style="fill:#f5f5f5"></polygon><polygon points="71.82 357 72.58 350.4 20.87 343.8 20.21 349.83 71.82 357" style="fill:#f5f5f5"></polygon></g><g id="freepik--Sign--inject-12"><path d="M320.72,329.19h-8.6V68.39a4.3,4.3,0,0,1,4.3-4.3h0a4.31,4.31,0,0,1,4.3,4.3Z" style="fill:#263238"></path><polygon points="275.64 173.9 299.47 171.69 358.38 203.4 354.44 210.71 347.01 210.68 351.96 215.33 346.57 225.34 288.04 193.84 275.64 173.9" style="fill:#F17300"></polygon><polygon points="275.64 173.9 299.47 171.69 358.38 203.4 354.44 210.71 347.01 210.68 351.96 215.33 346.57 225.34 288.04 193.84 275.64 173.9" style="opacity:0.30000000000000004"></polygon><path d="M274.91,170.87l16.82-1.56a9.64,9.64,0,0,1,5.47,1.11l56.34,30.32-3.94,7.32-7.43,0,4.95,4.65-5.39,10-56.26-30.28a9.69,9.69,0,0,1-3.62-3.4L273,174.75A2.54,2.54,0,0,1,274.91,170.87Z" style="fill:#F17300"></path><g style="opacity:0.2"><path d="M339.31,221.47a8.45,8.45,0,0,0-1-2.43,17.91,17.91,0,0,0-5.26-4.83,119.08,119.08,0,0,0-20.77-11.64c-4.27-1.87-8.47-3.33-12.25-4.77a93.1,93.1,0,0,1-9.89-4.25,40.35,40.35,0,0,1-6.16-3.84c-.69-.51-1.18-1-1.53-1.25a3.05,3.05,0,0,1-.5-.48s.76.58,2.15,1.56a43.49,43.49,0,0,0,6.21,3.68,98.14,98.14,0,0,0,9.89,4.13c3.78,1.41,8,2.86,12.29,4.74a112.44,112.44,0,0,1,20.78,11.82,17.36,17.36,0,0,1,5.22,5,5.94,5.94,0,0,1,.72,1.85,2.56,2.56,0,0,1,.08.51C339.31,221.41,339.32,221.47,339.31,221.47Z"></path><path d="M276.91,171a7.65,7.65,0,0,0-.08,3.26,9.26,9.26,0,0,0,1.52,3.5,18.06,18.06,0,0,0,3.56,3.63,107.9,107.9,0,0,0,11,7.59c4.31,2.62,9.2,5.24,14.39,7.89l26.58,13.58c3.35,1.75,6.09,3.16,8,4.17l2.17,1.16a7,7,0,0,1,.74.43,4.56,4.56,0,0,1-.79-.34l-2.21-1.07-8.11-4L307.08,197.3c-5.19-2.66-10.09-5.3-14.4-8a101.72,101.72,0,0,1-11-7.72,17.75,17.75,0,0,1-3.57-3.75,9.21,9.21,0,0,1-1.48-3.62,6.86,6.86,0,0,1,0-2.48A4.44,4.44,0,0,1,276.91,171Z"></path><path d="M300.07,181.89a4.92,4.92,0,0,1-.5-.71,21.76,21.76,0,0,0-1.49-2,20.9,20.9,0,0,0-7.14-5.41,14.23,14.23,0,0,0-2.8-1,5.35,5.35,0,0,0-3.09.14,3.27,3.27,0,0,0-2.12,2.31,4.57,4.57,0,0,0,1,3.29c2.88,4.15,7.45,7.53,12.51,10.4,1.27.72,2.54,1.43,3.8,2.07a9,9,0,0,0,3.9,1.12,4.19,4.19,0,0,0,3.4-1.47,4.77,4.77,0,0,0,.82-3.51,9.55,9.55,0,0,0-1.24-3.38c-.59-1-1.24-2-1.87-2.93a33.82,33.82,0,0,0-4-4.77,28.74,28.74,0,0,0-7.35-5.21c-1-.47-1.72-.8-2.25-1a7.21,7.21,0,0,1-.78-.35,5,5,0,0,1,.82.25,23.48,23.48,0,0,1,2.3.93,27.48,27.48,0,0,1,7.51,5.13,33.2,33.2,0,0,1,4.12,4.78c.64.93,1.3,1.9,1.91,3a10.05,10.05,0,0,1,1.32,3.53,5.27,5.27,0,0,1-.91,3.89,4.7,4.7,0,0,1-3.79,1.67A9.36,9.36,0,0,1,300,191.5c-1.29-.65-2.55-1.36-3.83-2.08-5.09-2.88-9.72-6.31-12.64-10.58a5,5,0,0,1-1-3.65,3.71,3.71,0,0,1,2.41-2.62,5.79,5.79,0,0,1,3.34-.13,14,14,0,0,1,2.86,1,19.74,19.74,0,0,1,8.57,7.64A7.52,7.52,0,0,1,300.07,181.89Z"></path><path d="M351.84,204.07c0,.05-.81-.34-2.34-.65a21,21,0,0,0-6.59,0c-2.77.31-6,1.17-9.81,1.21a16.87,16.87,0,0,1-5.81-1,21.72,21.72,0,0,1-5.56-3,32.88,32.88,0,0,1-8.1-9,81.74,81.74,0,0,1-4.64-8.74c-1.21-2.54-2.2-4.58-2.94-6l-.84-1.6a2.56,2.56,0,0,1-.27-.57,3.14,3.14,0,0,1,.36.52c.23.35.54.87.93,1.55.79,1.37,1.84,3.39,3.09,5.91a87.72,87.72,0,0,0,4.71,8.64,33.12,33.12,0,0,0,8,8.84,18.68,18.68,0,0,0,11.06,3.91c3.68,0,7-.82,9.77-1.09a19.77,19.77,0,0,1,6.67.22,10.83,10.83,0,0,1,1.73.55A2.42,2.42,0,0,1,351.84,204.07Z"></path><path d="M331.21,194a3.61,3.61,0,0,1-.6-.22c-.38-.16-.93-.41-1.64-.77s-1.54-.82-2.49-1.42q-.72-.44-1.5-1a4.43,4.43,0,0,1-1.5-1.41,1,1,0,0,1,.12-1.22,1.34,1.34,0,0,1,1.24-.22c.78.21,1.51.47,2.3.74,1.56.55,3.21,1.21,4.9,2a52.93,52.93,0,0,1,5.16,2.74,6.58,6.58,0,0,1,2.41,2.07,2,2,0,0,1-.95,3,7.32,7.32,0,0,1-3.25.36,19.48,19.48,0,0,1-3.09-.4,21.12,21.12,0,0,1-5.54-1.95,20.83,20.83,0,0,1-10.38-12.47,14.32,14.32,0,0,1-.43-1.76,2.67,2.67,0,0,1-.08-.63c.05,0,.21.85.71,2.33a22,22,0,0,0,3,5.84,20.74,20.74,0,0,0,7.37,6.26,21,21,0,0,0,5.42,1.88,19.94,19.94,0,0,0,3,.38,6.69,6.69,0,0,0,3-.32,1.6,1.6,0,0,0,.93-1,1.54,1.54,0,0,0-.21-1.29,6.16,6.16,0,0,0-2.22-1.91,56.85,56.85,0,0,0-5.1-2.74c-1.67-.79-3.3-1.46-4.84-2-.77-.28-1.54-.56-2.24-.75a1,1,0,0,0-.9.1.62.62,0,0,0-.06.77,4.13,4.13,0,0,0,1.38,1.31c.5.38,1,.71,1.45,1,.93.61,1.76,1.1,2.44,1.48s1.22.67,1.59.86A2.63,2.63,0,0,1,331.21,194Z"></path></g><path d="M369,149.5l-.13-.11-16.85-10-66.74-4.67-.58,8.28L291,147l-6.66,1.29-.8,11.34L346.06,164a14.11,14.11,0,0,0,7.12-1.37l12.37-6C368.15,155.38,369,152.48,369,149.5Z" style="fill:#F17300"></path><path d="M369,149.5l-.13-.11-16.85-10-66.74-4.67-.58,8.28L291,147l-6.66,1.29-.8,11.34L346.06,164a14.11,14.11,0,0,0,7.12-1.37l12.37-6A7.91,7.91,0,0,0,369,149.5Z" style="opacity:0.30000000000000004"></path><path d="M368,148.16l-13.38-10.31a9.64,9.64,0,0,0-5.22-2l-63.83-4.47-.58,8.29,6.3,3.94-6.66,1.29-.8,11.34,63.74,4.47a9.68,9.68,0,0,0,4.88-.94l15.11-7.31A2.55,2.55,0,0,0,368,148.16Z" style="fill:#F17300"></path><g style="opacity:0.2"><path d="M286.49,156.53s0-.06.1-.15a3,3,0,0,1,.34-.39,6.21,6.21,0,0,1,1.6-1.17,17.14,17.14,0,0,1,7.1-1.46,111.14,111.14,0,0,1,23.88,1.11c4.63.7,9,1.73,12.92,2.56A97.75,97.75,0,0,0,343,158.82a44.67,44.67,0,0,0,7.21.21c1.7-.09,2.64-.23,2.65-.17a3.45,3.45,0,0,1-.68.13,18.23,18.23,0,0,1-2,.24,39.91,39.91,0,0,1-7.26,0,93.43,93.43,0,0,1-10.63-1.69c-4-.81-8.3-1.82-12.9-2.52a119.93,119.93,0,0,0-23.78-1.25,17.88,17.88,0,0,0-7,1.27A8.35,8.35,0,0,0,286.49,156.53Z"></path><path d="M366.22,147.17a3.92,3.92,0,0,1-.22.83,6.81,6.81,0,0,1-1.3,2.11,9.52,9.52,0,0,1-3.19,2.27,17.9,17.9,0,0,1-5,1.26,100.26,100.26,0,0,1-13.43.64c-5.05-.06-10.6-.44-16.41-1l-29.71-2.87-9-.94-2.45-.28a5,5,0,0,1-.84-.13,4.54,4.54,0,0,1,.85,0l2.46.18,9,.77,29.73,2.72c5.8.53,11.33.92,16.37,1a104.56,104.56,0,0,0,13.37-.52,18.25,18.25,0,0,0,5-1.17,9.19,9.19,0,0,0,3.15-2.14A7.66,7.66,0,0,0,366.22,147.17Z"></path><path d="M340.81,144a6.69,6.69,0,0,1,.75-.43,21.33,21.33,0,0,1,2.29-.95,20.51,20.51,0,0,1,9-.93,14.57,14.57,0,0,1,3,.65,5.78,5.78,0,0,1,2.76,1.89,3.71,3.71,0,0,1,.63,3.51,5,5,0,0,1-2.82,2.53c-4.76,2-10.5,2.47-16.35,2.18-1.47-.07-2.91-.14-4.34-.28a9.44,9.44,0,0,1-4.12-1.22,4.68,4.68,0,0,1-2.31-3.44,5.28,5.28,0,0,1,1.31-3.77,9.92,9.92,0,0,1,3-2.28c1.07-.56,2.14-1,3.19-1.48a33.32,33.32,0,0,1,6-1.84,27.21,27.21,0,0,1,9.09-.32,21.69,21.69,0,0,1,2.44.44,5,5,0,0,1,.84.23,7.29,7.29,0,0,1-.86-.13c-.55-.1-1.38-.23-2.44-.34a28.6,28.6,0,0,0-9,.48,34.23,34.23,0,0,0-5.94,1.88c-1,.45-2.1.93-3.15,1.48a9.62,9.62,0,0,0-2.85,2.19,4.79,4.79,0,0,0-1.19,3.41,4.18,4.18,0,0,0,2.1,3.06,9,9,0,0,0,3.89,1.14c1.41.13,2.86.2,4.32.27,5.81.29,11.48-.13,16.12-2.1a4.55,4.55,0,0,0,2.59-2.25,3.25,3.25,0,0,0-.55-3.09,5.35,5.35,0,0,0-2.54-1.77,13.37,13.37,0,0,0-2.89-.66,20.87,20.87,0,0,0-8.93.75c-1,.32-1.78.65-2.3.86A5.18,5.18,0,0,1,340.81,144Z"></path><path d="M285.2,135.12a2.49,2.49,0,0,1,.63.06,10,10,0,0,1,1.76.46,19.71,19.71,0,0,1,5.75,3.37c2.23,1.73,4.57,4.17,7.68,6.15a18.67,18.67,0,0,0,11.44,2.6A33,33,0,0,0,324,144.57a87.89,87.89,0,0,0,8.6-4.79c2.4-1.46,4.37-2.61,5.76-3.34.7-.37,1.25-.64,1.62-.81a2.63,2.63,0,0,1,.59-.25,2.86,2.86,0,0,1-.54.34l-1.57.9c-1.36.78-3.29,2-5.66,3.48a82.21,82.21,0,0,1-8.59,4.9,32.86,32.86,0,0,1-11.67,3.28,21.47,21.47,0,0,1-6.29-.45,16.8,16.8,0,0,1-5.43-2.26c-3.17-2-5.48-4.52-7.66-6.27a20.64,20.64,0,0,0-5.59-3.47A22.49,22.49,0,0,0,285.2,135.12Z"></path><path d="M308,137.62a3.32,3.32,0,0,1,.63,0c.41,0,1,.09,1.8.13s1.74.07,2.85.05c.56,0,1.15,0,1.78-.08a4.33,4.33,0,0,0,1.86-.38.61.61,0,0,0,.36-.68c-.06-.26-.36-.45-.7-.57-.7-.21-1.5-.38-2.29-.56-1.61-.35-3.34-.65-5.18-.88s-3.77-.36-5.78-.4a6,6,0,0,0-2.89.42,1.58,1.58,0,0,0-.87,1,1.6,1.6,0,0,0,.27,1.31,6.75,6.75,0,0,0,2.37,1.87,19.14,19.14,0,0,0,2.76,1.29,21.31,21.31,0,0,0,5.58,1.32,20.86,20.86,0,0,0,9.58-1.36,21.79,21.79,0,0,0,5.68-3.32c1.22-1,1.81-1.62,1.84-1.59s-.12.18-.4.49A15.26,15.26,0,0,1,326,137a20.75,20.75,0,0,1-15.43,5,21.62,21.62,0,0,1-5.73-1.31,19.42,19.42,0,0,1-2.82-1.32,7,7,0,0,1-2.55-2,2.11,2.11,0,0,1-.34-1.73,2.07,2.07,0,0,1,1.14-1.31,6.5,6.5,0,0,1,3.13-.47,53.32,53.32,0,0,1,5.83.44c1.85.24,3.6.56,5.21.93.82.19,1.57.36,2.34.6a1.36,1.36,0,0,1,.93.85,1,1,0,0,1-.54,1.1,4.52,4.52,0,0,1-2,.39c-.64,0-1.24,0-1.8,0-1.12,0-2.08-.07-2.86-.14s-1.39-.15-1.8-.22A2.49,2.49,0,0,1,308,137.62Z"></path></g><polygon points="273.6 104.87 294 117.39 360.85 114.99 360.56 106.69 353.88 103.42 360.37 101.44 359.96 90.08 293.54 92.46 273.6 104.87" style="fill:#F17300"></polygon><polygon points="273.6 104.87 294 117.39 360.85 114.99 360.56 106.69 353.88 103.42 360.37 101.44 359.96 90.08 293.54 92.46 273.6 104.87" style="opacity:0.30000000000000004"></polygon><path d="M271.6,107.27,286,116.1a9.6,9.6,0,0,0,5.4,1.42l63.94-2.29-.3-8.3-6.68-3.26,6.49-2-.4-11.36L290.6,92.61a9.65,9.65,0,0,0-4.76,1.45l-14.25,8.87A2.55,2.55,0,0,0,271.6,107.27Z" style="fill:#F17300"></path><g style="opacity:0.2"><path d="M351.74,90.34a.53.53,0,0,1-.09.16,3,3,0,0,1-.29.42,6.46,6.46,0,0,1-1.47,1.34,17.38,17.38,0,0,1-6.9,2.2,111.7,111.7,0,0,1-23.87,1.42c-4.68-.21-9.1-.78-13.12-1.19A100.54,100.54,0,0,0,295.3,94a44.37,44.37,0,0,0-7.19.55c-1.68.27-2.6.51-2.62.45a6.27,6.27,0,0,1,.66-.2c.44-.11,1.08-.3,1.92-.45a40.55,40.55,0,0,1,7.23-.72,93.76,93.76,0,0,1,10.75.55c4,.39,8.44.94,13.09,1.15a119.32,119.32,0,0,0,23.79-1.27,18,18,0,0,0,6.85-2A8.82,8.82,0,0,0,351.74,90.34Z"></path><path d="M273.44,108.07a3.4,3.4,0,0,1,.13-.85,6.72,6.72,0,0,1,1.07-2.23,9.39,9.39,0,0,1,2.93-2.6,18.13,18.13,0,0,1,4.87-1.79,102.55,102.55,0,0,1,13.27-2c5-.47,10.6-.68,16.43-.77L342,97.5l9.05,0,2.46,0a5.25,5.25,0,0,1,.86,0,5.36,5.36,0,0,1-.86.07l-2.46.07-9,.19-29.85.43c-5.83.09-11.37.28-16.39.73A107.37,107.37,0,0,0,282.52,101a18.17,18.17,0,0,0-4.81,1.69,9.27,9.27,0,0,0-2.91,2.46A7.66,7.66,0,0,0,273.44,108.07Z"></path><path d="M299,108.5a4.75,4.75,0,0,1-.7.51,18.62,18.62,0,0,1-2.18,1.19,20.45,20.45,0,0,1-8.88,1.88,14.87,14.87,0,0,1-3-.33,5.74,5.74,0,0,1-2.93-1.59,3.72,3.72,0,0,1-1-3.43,5,5,0,0,1,2.54-2.81c4.51-2.53,10.18-3.56,16-3.9,1.47-.08,2.91-.16,4.35-.18a9.39,9.39,0,0,1,4.22.79,4.69,4.69,0,0,1,2.67,3.17,5.28,5.28,0,0,1-.91,3.89,10,10,0,0,1-2.75,2.58c-1,.68-2,1.26-3,1.81a33.36,33.36,0,0,1-5.8,2.47,27.56,27.56,0,0,1-9,1.28,22.77,22.77,0,0,1-2.47-.18,4.32,4.32,0,0,1-.85-.14,6.18,6.18,0,0,1,.86,0c.56,0,1.39.09,2.46.09a28.78,28.78,0,0,0,8.89-1.43,33,33,0,0,0,5.71-2.5c1-.55,2-1.14,3-1.81a9.43,9.43,0,0,0,2.61-2.47,4.83,4.83,0,0,0,.82-3.52,4.2,4.2,0,0,0-2.41-2.82,9,9,0,0,0-4-.72c-1.41,0-2.86.1-4.32.18-5.81.34-11.4,1.35-15.81,3.8a4.5,4.5,0,0,0-2.34,2.51,3.26,3.26,0,0,0,.88,3,5.38,5.38,0,0,0,2.71,1.5,13.71,13.71,0,0,0,2.94.35,21,21,0,0,0,8.8-1.69,23.19,23.19,0,0,0,2.2-1.1A6.31,6.31,0,0,1,299,108.5Z"></path><path d="M355.28,111.5a3.37,3.37,0,0,1-.63,0,10.17,10.17,0,0,1-1.8-.27,19.75,19.75,0,0,1-6.08-2.75c-2.4-1.48-5-3.66-8.28-5.3a18.68,18.68,0,0,0-11.65-1.38,33.1,33.1,0,0,0-11.09,4.39,88.49,88.49,0,0,0-8.05,5.67c-2.23,1.71-4.07,3.06-5.38,3.93-.65.44-1.17.77-1.52,1a3.28,3.28,0,0,1-.56.31,3.22,3.22,0,0,1,.5-.4l1.47-1.06c1.27-.92,3.06-2.31,5.26-4.05a82.43,82.43,0,0,1,8-5.79,33,33,0,0,1,11.25-4.49,21.32,21.32,0,0,1,6.31-.22,17.06,17.06,0,0,1,5.64,1.68c3.36,1.7,5.92,3.92,8.27,5.42A21,21,0,0,0,352.9,111C354.41,111.44,355.29,111.44,355.28,111.5Z"></path><path d="M332.32,111.42a5.19,5.19,0,0,1-.63,0c-.41,0-1,0-1.8.06s-1.74.12-2.84.26c-.55.07-1.14.16-1.76.27a4.19,4.19,0,0,0-1.81.57.61.61,0,0,0-.29.71,1,1,0,0,0,.76.49c.71.14,1.53.23,2.34.32,1.63.18,3.39.3,5.23.32a55,55,0,0,0,5.8-.2,6.16,6.16,0,0,0,2.83-.72,1.6,1.6,0,0,0,.76-1.08,1.63,1.63,0,0,0-.41-1.27,6.73,6.73,0,0,0-2.55-1.61,19.62,19.62,0,0,0-2.88-1,21.45,21.45,0,0,0-5.69-.72,20.68,20.68,0,0,0-9.38,2.37,21.62,21.62,0,0,0-5.3,3.89c-1.1,1.11-1.63,1.81-1.67,1.78a3.51,3.51,0,0,1,.36-.53,15.19,15.19,0,0,1,1.16-1.39,20.85,20.85,0,0,1,14.82-6.6,21.61,21.61,0,0,1,5.83.7,20.56,20.56,0,0,1,2.95,1,7.15,7.15,0,0,1,2.75,1.76,2.09,2.09,0,0,1,.52,1.68,2,2,0,0,1-1,1.43,6.66,6.66,0,0,1-3.07.8,52.88,52.88,0,0,1-5.84.17c-1.87,0-3.64-.17-5.28-.37-.83-.11-1.6-.2-2.39-.36a1.35,1.35,0,0,1-1-.74,1,1,0,0,1,.43-1.15,4.42,4.42,0,0,1,2-.6c.62-.1,1.22-.17,1.78-.23,1.11-.11,2.07-.16,2.86-.17s1.4,0,1.81,0A2.2,2.2,0,0,1,332.32,111.42Z"></path></g></g><g id="freepik--Floor--inject-12"><path d="M446.7,248c0,.14-87.28.26-194.92.26S56.85,248.09,56.85,248s87.26-.26,194.93-.26S446.7,247.8,446.7,248Z" style="fill:#263238"></path></g><g id="freepik--Plants--inject-12"><path d="M67.17,411.39c-.09,0-.45-1.48-1.18-3.85a65.9,65.9,0,0,0-3.54-9,65.51,65.51,0,0,0-4.84-8.38c-1.4-2.05-2.35-3.27-2.28-3.32a4.71,4.71,0,0,1,.75.78c.46.53,1.09,1.32,1.83,2.33a54.24,54.24,0,0,1,5,8.37,52.91,52.91,0,0,1,3.42,9.13c.33,1.21.56,2.19.68,2.88A4.73,4.73,0,0,1,67.17,411.39Z" style="fill:#263238"></path><path d="M73.75,415.7c-.13,0-2.66-8.36-5.63-18.76S62.85,378.07,63,378s2.66,8.36,5.63,18.76S73.89,415.66,73.75,415.7Z" style="fill:#263238"></path><path d="M79.13,393.16a27.57,27.57,0,0,1-.39,3.4c-.27,2.09-.58,5-.75,8.2s-.18,6.12-.13,8.23a31.46,31.46,0,0,1,0,3.42,2.83,2.83,0,0,1-.17-.91c-.08-.59-.15-1.44-.22-2.5a70,70,0,0,1,0-8.27,71.6,71.6,0,0,1,.91-8.22c.18-1.05.35-1.89.49-2.46A3.69,3.69,0,0,1,79.13,393.16Z" style="fill:#263238"></path><path d="M364.47,221.61c.14,0,1.95,5.83,4,13.11s3.68,13.22,3.55,13.26-1.95-5.83-4.05-13.11S364.33,221.65,364.47,221.61Z" style="fill:#263238"></path><path d="M376.35,223.47c.08,0-.3,1.36-.73,3.56a53.69,53.69,0,0,0-1,8.66,53,53,0,0,0,.47,8.7c.3,2.22.6,3.57.51,3.59a3.68,3.68,0,0,1-.3-.93,25.82,25.82,0,0,1-.57-2.6,43.24,43.24,0,0,1,.53-17.5,26,26,0,0,1,.72-2.57A3.07,3.07,0,0,1,376.35,223.47Z" style="fill:#263238"></path><path d="M383.74,228.14c.07.05-.62,1-1.57,2.72a37.26,37.26,0,0,0-3,6.89,36.35,36.35,0,0,0-1.46,7.37c-.18,1.93-.17,3.13-.26,3.13a2.67,2.67,0,0,1-.11-.84,21.84,21.84,0,0,1,0-2.31,30.43,30.43,0,0,1,4.5-14.43,21.77,21.77,0,0,1,1.32-1.9C383.51,228.35,383.71,228.12,383.74,228.14Z" style="fill:#263238"></path><path d="M318.43,317.25c-.53-2,.81-4.1,2.32-5.58s3.3-2.82,4.08-4.78c1.27-3.19-.43-7.31,1.73-10,1.27-1.56,3.56-2.08,4.69-3.75a8.55,8.55,0,0,0,1-3,30.33,30.33,0,0,1,7.53-14.1,26.29,26.29,0,0,1-3,13.59,17.16,17.16,0,0,0-2.24,5.15c-.48,3,1.21,6.15.47,9.11-.85,3.4-4.67,5.67-4.85,9.17-.15,3,2.43,5.55,2.24,8.5a8.09,8.09,0,0,1-1.32,3.51c-2.29,3.8-5.64,6.42-10.73,6.33l-6.23.22Z" style="fill:#F17300"></path><g style="opacity:0.30000000000000004"><path d="M318.43,317.25c-.53-2,.81-4.1,2.32-5.58s3.3-2.82,4.08-4.78c1.27-3.19-.43-7.31,1.73-10,1.27-1.56,3.56-2.08,4.69-3.75a8.55,8.55,0,0,0,1-3,30.33,30.33,0,0,1,7.53-14.1,26.29,26.29,0,0,1-3,13.59,17.16,17.16,0,0,0-2.24,5.15c-.48,3,1.21,6.15.47,9.11-.85,3.4-4.67,5.67-4.85,9.17-.15,3,2.43,5.55,2.24,8.5a8.09,8.09,0,0,1-1.32,3.51c-2.29,3.8-5.64,6.42-10.73,6.33l-6.23.22Z"></path></g><path d="M312.91,331.84a5,5,0,0,1-1.71,0,11.1,11.1,0,0,1-2-.51,8.94,8.94,0,0,1-2.5-1.37,3.53,3.53,0,0,1-1-1.38,6.58,6.58,0,0,1-.29-1.86,20,20,0,0,0-.15-2,5.44,5.44,0,0,0-.76-2c-.73-1.29-1.95-2.51-2.35-4.26a14.09,14.09,0,0,1,.17-5.47,11.62,11.62,0,0,0-.14-5.85c-.67-1.95-2-3.71-2.72-5.91s-.37-4.61-.51-7a9.26,9.26,0,0,0-.81-3.46c-.51-1.11-1.21-2.15-1.75-3.31-1.11-2.35-1.3-5-1.61-7.61-.14-1.32-.29-2.65-.44-4a19.19,19.19,0,0,0-.7-4,34.45,34.45,0,0,0-1.49-3.86,13,13,0,0,1-.72-2,19.57,19.57,0,0,1-.2-2.14,25.9,25.9,0,0,1,.16-4.31c.17-1.44.43-2.87.59-4.31l0-.25,0-.29.25.13a9.71,9.71,0,0,1,3.36,2.83,15.4,15.4,0,0,1,2.06,3.8,46.55,46.55,0,0,1,1.94,8.17,22.16,22.16,0,0,0,2.56,7.53c.68,1.11,1.51,2.13,2.23,3.21a8.69,8.69,0,0,1,1.55,3.55c.37,2.64-1.08,4.95-.78,7.29a8.07,8.07,0,0,0,1.14,3.23c.56,1,1.23,1.92,1.86,2.85a18.1,18.1,0,0,1,1.67,2.88,9.11,9.11,0,0,1,.77,3.12c.15,2.1-.15,4.1,0,6a13.54,13.54,0,0,0,1.53,5.12c.76,1.54,1.6,2.92,2.3,4.27.35.67.68,1.33.94,2a10,10,0,0,1,.55,2,12.22,12.22,0,0,1,.05,3.56,8.89,8.89,0,0,1-1.79,4.54,4.63,4.63,0,0,1-.5.55,2.7,2.7,0,0,1-.41.34c-.23.17-.36.25-.36.25a6.8,6.8,0,0,0,1.21-1.19,9,9,0,0,0,1.69-4.51,12.23,12.23,0,0,0-.08-3.5,9.51,9.51,0,0,0-.55-1.93,20.57,20.57,0,0,0-.95-2c-.71-1.33-1.55-2.71-2.32-4.25a13.93,13.93,0,0,1-1.6-5.22c-.16-1.92.13-3.92,0-6a8.71,8.71,0,0,0-.75-3,16.92,16.92,0,0,0-1.66-2.82c-.63-.92-1.3-1.85-1.88-2.87a8.5,8.5,0,0,1-1.19-3.36c-.3-2.49,1.14-4.82.77-7.27a8.42,8.42,0,0,0-1.5-3.4c-.71-1.06-1.54-2.08-2.24-3.22a22.24,22.24,0,0,1-2.62-7.66,46.87,46.87,0,0,0-1.93-8.09,14.91,14.91,0,0,0-2-3.7,9.26,9.26,0,0,0-3.21-2.72l.28-.16,0,.25c-.16,1.46-.42,2.89-.59,4.31a25.22,25.22,0,0,0-.16,4.25,19.59,19.59,0,0,0,.19,2.08,11.87,11.87,0,0,0,.7,1.94,37.73,37.73,0,0,1,1.5,3.9,19.85,19.85,0,0,1,.7,4.06c.15,1.34.3,2.67.44,4,.3,2.62.5,5.24,1.56,7.51.53,1.12,1.23,2.17,1.75,3.31a9.6,9.6,0,0,1,.83,3.59c.14,2.4-.18,4.75.47,6.88s2,3.89,2.7,5.91a11.88,11.88,0,0,1,.13,6,14,14,0,0,0-.2,5.36c.36,1.67,1.54,2.88,2.29,4.21a5.93,5.93,0,0,1,.78,2.08,18.48,18.48,0,0,1,.13,2,6.5,6.5,0,0,0,.26,1.82,3.46,3.46,0,0,0,1,1.31,8.67,8.67,0,0,0,2.44,1.37,11.41,11.41,0,0,0,2,.55,8.13,8.13,0,0,0,1.27.12Z" style="fill:#263238"></path><path d="M293.22,258.41a.62.62,0,0,1,.06.19c0,.15.08.34.14.56.12.49.27,1.24.5,2.16s.81,2,1.29,3.26A43.65,43.65,0,0,1,296.7,269c.47,1.66.89,3.51,1.33,5.48a23.22,23.22,0,0,0,2,6.09c.51,1,1.08,2,1.54,3.16a14.8,14.8,0,0,1,.9,3.58,73.45,73.45,0,0,0,1.34,7.54c1.25,5.1,2.44,10,3.53,14.4l3,11.74c.82,3.33,1.49,6,2,7.93q.33,1.38.51,2.16l.12.57c0,.12,0,.19,0,.19a1.52,1.52,0,0,1-.07-.18l-.16-.56c-.14-.52-.33-1.23-.58-2.14l-2.08-7.9c-.87-3.34-1.9-7.31-3-11.72s-2.3-9.3-3.56-14.41a70.91,70.91,0,0,1-1.34-7.57,14.27,14.27,0,0,0-.86-3.49c-.44-1.09-1-2.11-1.52-3.13a23.36,23.36,0,0,1-2-6.18c-.43-2-.83-3.83-1.29-5.49s-.93-3.13-1.41-4.41-1-2.34-1.24-3.3-.33-1.68-.43-2.18c0-.23-.07-.42-.1-.57A.6.6,0,0,1,293.22,258.41Z" style="fill:#263238"></path><path d="M311.81,331.86c-4.07-2.42-5.24-9.76-3.54-14.18s4.67-8.47,5.13-13.18c.35-3.62-.83-7.34,0-10.88,1.14-4.78,5.81-8.49,5.75-13.4,0-2.76-1.6-5.35-1.47-8.1.15-3.38,2.74-6.06,4.35-9,2.46-4.55,2.62-9.94,3.46-15s2.79-10.58,7.31-13.09c.67,4.33,1.81,7.3,1.46,13.18-.13,2.11-2.58,6.15-2.92,10.77-.2,2.76-.33,5.53-.5,8.3a26.52,26.52,0,0,1-1.31,7.94c-.74,1.93-1.92,3.69-2.47,5.68-1,3.75.32,7.8-.51,11.6-.71,3.22-2.93,6-3.39,9.25-.64,4.58,2.33,9.34.81,13.71-.75,2.17-2.54,3.91-3,6.15-.4,1.74,0,3.58-.33,5.33-.57,2.81-5.93,5-8.8,4.82" style="fill:#F17300"></path><path d="M331.69,239.25a.94.94,0,0,1,0,.25c0,.18-.05.41-.09.71-.09.63-.2,1.55-.41,2.73s-.84,2.55-1.33,4.17-1,3.48-1.5,5.57-.85,4.41-1.26,6.89a29,29,0,0,1-2.08,7.79c-.58,1.3-1.22,2.61-1.7,4a18.25,18.25,0,0,0-.86,4.4,89.78,89.78,0,0,1-1.19,9.49c-1.25,6.42-2.43,12.54-3.52,18.11s-2.16,10.55-3,14.76-1.58,7.56-2.07,9.94c-.25,1.15-.45,2.05-.59,2.69-.06.29-.12.52-.16.7a1,1,0,0,1-.07.24,1.47,1.47,0,0,1,0-.24c0-.19.07-.42.12-.71.13-.65.3-1.56.51-2.72.47-2.38,1.14-5.77,2-10s1.83-9.22,2.94-14.77,2.25-11.69,3.49-18.11a89.07,89.07,0,0,0,1.19-9.45,18.62,18.62,0,0,1,.89-4.49c.5-1.42,1.15-2.73,1.72-4a28.57,28.57,0,0,0,2.09-7.69c.43-2.49.83-4.8,1.32-6.9a57.71,57.71,0,0,1,1.55-5.58c.52-1.63,1.16-3,1.4-4.13s.36-2.09.48-2.71l.13-.71Z" style="fill:#263238"></path><path d="M399.48,425.61a8,8,0,0,1,4.15,4.7,14.16,14.16,0,0,1,.55,6.37c-.47,4.13-2.81,8.3-5.34,11.61-3.48-3-4.28-8.34-4.52-11.05-.38-4.29,1.55-12.27,5.16-11.63" style="fill:#F17300"></path><path d="M402.88,455.11a6.86,6.86,0,0,1,2.21-6.5,9.07,9.07,0,0,1,6.69-2.09,3.86,3.86,0,0,1,2.94,1.32,2.93,2.93,0,0,1,0,3,5.9,5.9,0,0,1-2.19,2.16c-3,1.89-6.28,3.17-9.69,2.15" style="fill:#F17300"></path><path d="M398.42,467.78a5.49,5.49,0,0,1,.12-.85l.42-2.3a24.23,24.23,0,0,1,2.37-7.33,14.68,14.68,0,0,1,5.26-5.59,10.2,10.2,0,0,1,2.15-.95,4.41,4.41,0,0,1,.62-.15.6.6,0,0,1,.22,0,14.41,14.41,0,0,0-2.88,1.31,15.17,15.17,0,0,0-5.1,5.56,26,26,0,0,0-2.43,7.23c-.21,1-.38,1.74-.51,2.27A4.35,4.35,0,0,1,398.42,467.78Z" style="fill:#263238"></path><path d="M398.55,431.82a1.3,1.3,0,0,1,0,.37c0,.27,0,.63.07,1.06,0,.93.1,2.27.15,3.92.11,3.31.19,7.89.17,12.95s-.14,9.63-.28,12.94c-.07,1.65-.13,3-.19,3.92,0,.43-.05.79-.07,1.06a1.61,1.61,0,0,1-.05.37,2.12,2.12,0,0,1,0-.37c0-.28,0-.63,0-1.07,0-1,.06-2.29.1-3.92.08-3.31.17-7.88.19-12.94s0-9.62-.08-12.93c0-1.63-.05-3-.06-3.92v-1.07A1.53,1.53,0,0,1,398.55,431.82Z" style="fill:#263238"></path><path d="M396.86,457.62a16,16,0,0,0-8.72-11.7c-1.17-.56-2.69-.93-3.64-.06s-.74,2.42-.28,3.62A13.66,13.66,0,0,0,396.78,458" style="fill:#F17300"></path><path d="M388.7,449.83a5.3,5.3,0,0,1,.74.33,8.8,8.8,0,0,1,.83.44c.31.2.69.39,1.06.67a14.23,14.23,0,0,1,1.22.91,17.07,17.07,0,0,1,1.29,1.18,17.92,17.92,0,0,1,2.46,3.15,17.55,17.55,0,0,1,1.62,3.66c.16.6.32,1.16.41,1.7a13.27,13.27,0,0,1,.21,1.51,11.32,11.32,0,0,1,0,1.25,7.07,7.07,0,0,1,0,.95,4.34,4.34,0,0,1-.09.8c-.07,0,0-1.15-.16-3a13.3,13.3,0,0,0-.24-1.48,15.1,15.1,0,0,0-.43-1.66,16.85,16.85,0,0,0-4-6.71,15.05,15.05,0,0,0-1.25-1.18c-.4-.36-.81-.65-1.18-.93C389.72,450.37,388.67,449.89,388.7,449.83Z" style="fill:#263238"></path><path d="M369,394.76a2.19,2.19,0,0,1-.25.48c-.2.36-.46.8-.78,1.33s-.77,1.27-1.22,2.11-1,1.76-1.55,2.83c-1.12,2.1-2.34,4.68-3.57,7.58a102,102,0,0,0-3.43,9.68c-1,3.5-1.76,6.89-2.33,10s-.89,5.94-1.08,8.32c-.12,1.19-.16,2.27-.22,3.21s-.09,1.77-.11,2.44,0,1.13,0,1.54a1.84,1.84,0,0,1-.06.53,2.19,2.19,0,0,1-.05-.53c0-.41,0-.92,0-1.55s0-1.49,0-2.44,0-2,.15-3.23a83.47,83.47,0,0,1,1-8.37,95.57,95.57,0,0,1,2.3-10.06,93.75,93.75,0,0,1,3.49-9.71c1.26-2.92,2.52-5.48,3.69-7.58.56-1.06,1.13-2,1.62-2.8s.92-1.51,1.3-2.07.63-.93.87-1.27S369,394.75,369,394.76Z" style="fill:#263238"></path><path d="M353.21,409.18a6.46,6.46,0,0,1-.06,1.34c-.09,1-.21,2.2-.34,3.66-.3,3.08-.68,7.35-1,12.06s-.51,9-.64,12.09L351,442a6.14,6.14,0,0,1-.12,1.35,6.58,6.58,0,0,1-.08-1.35c0-.87,0-2.12,0-3.68,0-3.1.17-7.39.49-12.11s.76-9,1.15-12.07c.2-1.54.37-2.78.51-3.64A7.66,7.66,0,0,1,353.21,409.18Z" style="fill:#263238"></path><path d="M337.88,422.26a3.8,3.8,0,0,1,.72.63,23.14,23.14,0,0,1,1.76,1.94,32,32,0,0,1,4.49,7.37,31.59,31.59,0,0,1,2.34,8.3,23.07,23.07,0,0,1,.23,2.61,4,4,0,0,1,0,1c-.09,0-.18-1.35-.56-3.51a36.13,36.13,0,0,0-6.76-15.5C338.75,423.31,337.81,422.32,337.88,422.26Z" style="fill:#263238"></path><path d="M399.13,257.54a3.29,3.29,0,0,1,.47.46l1.28,1.38.91,1c.33.38.66.81,1,1.26.72.92,1.58,1.93,2.4,3.15l1.32,1.88c.45.66.86,1.38,1.32,2.11.95,1.45,1.79,3.09,2.71,4.79a71.9,71.9,0,0,1,7.41,24c.19,1.93.42,3.76.46,5.48,0,.87.09,1.7.09,2.5l0,2.3c0,1.46-.13,2.78-.21,3.94,0,.58-.08,1.13-.13,1.62s-.13.94-.19,1.35c-.11.77-.2,1.39-.28,1.86a2.49,2.49,0,0,1-.13.65,5.42,5.42,0,0,1,0-.66c.05-.48.11-1.1.18-1.87,0-.41.09-.86.14-1.35s.06-1,.09-1.62c.05-1.15.17-2.47.13-3.93v-2.29c0-.79-.09-1.62-.13-2.47-.05-1.72-.29-3.53-.5-5.45a74.5,74.5,0,0,0-7.35-23.84c-.91-1.7-1.73-3.34-2.65-4.78-.45-.73-.86-1.46-1.3-2.12s-.87-1.29-1.28-1.89c-.79-1.23-1.63-2.25-2.33-3.18-.35-.46-.67-.9-1-1.28l-.88-1-1.2-1.44A2.87,2.87,0,0,1,399.13,257.54Z" style="fill:#263238"></path><path d="M429,277.28a9.84,9.84,0,0,1-.39,1.49c-.29,1-.69,2.32-1.16,4a120.95,120.95,0,0,0-4.24,27.26c-.07,1.77-.11,3.2-.13,4.19a8.57,8.57,0,0,1-.08,1.54,7.81,7.81,0,0,1-.12-1.53c0-1-.07-2.43,0-4.21a101.17,101.17,0,0,1,4.26-27.35c.52-1.7,1-3.06,1.32-4A8.23,8.23,0,0,1,429,277.28Z" style="fill:#263238"></path><path d="M431.16,296.86a57.78,57.78,0,0,0-3.29,7.14,58.09,58.09,0,0,0-1.76,7.65,8.15,8.15,0,0,1,0-2.33,26,26,0,0,1,1.23-5.49,25.33,25.33,0,0,1,2.39-5.1A7.88,7.88,0,0,1,431.16,296.86Z" style="fill:#263238"></path></g><g id="freepik--Character--inject-12"><polygon points="145.63 441.88 144.26 474.35 126.72 473.95 128.04 441.42 145.63 441.88" style="fill:#F17300"></polygon><path d="M135.65,472.93c-.15,0,.12-7.12.6-15.88s1-15.86,1.14-15.85-.12,7.12-.61,15.88S135.79,472.94,135.65,472.93Z" style="fill:#263238"></path><polygon points="144.35 472.11 126.82 471.66 126.72 473.95 144.26 474.35 144.35 472.11" style="fill:#263238"></polygon><path d="M127.14,463.56a2.47,2.47,0,0,1,.49-.69,11.82,11.82,0,0,1,1.63-1.6,12.26,12.26,0,0,1,2.92-1.76A9.32,9.32,0,0,1,143,462a7.7,7.7,0,0,1,1.19,2,2.29,2.29,0,0,1,.24.81,16.28,16.28,0,0,0-1.72-2.53,9.32,9.32,0,0,0-6.43-3,10.74,10.74,0,0,0-6.79,2.29C128,462.7,127.21,463.62,127.14,463.56Z" style="fill:#263238"></path><g style="opacity:0.30000000000000004"><polygon points="127.66 450.68 127.52 454.26 145.09 454.57 145.21 451.88 127.66 450.68"></polygon></g><path d="M186.9,443.82l-.85,19.77s19.8,7.5,20,11.17l-38.37-.28.07-30.85Z" style="fill:#F17300"></path><path d="M174.45,461.91a1.57,1.57,0,0,0-1.11,1.79,1.52,1.52,0,0,0,1.77,1.11,1.66,1.66,0,0,0,1.16-1.9,1.56,1.56,0,0,0-2-1" style="fill:#e0e0e0"></path><path d="M167.67,474.47v-3.08l37.14,1.4s1.71.76,1.51,2Z" style="fill:#263238"></path><path d="M186.39,463.71c0,.19-.95.27-1.88.87s-1.43,1.39-1.61,1.31.12-1.16,1.26-1.87S186.44,463.54,186.39,463.71Z" style="fill:#263238"></path><path d="M190.44,465.42c0,.18-.78.5-1.43,1.29s-.84,1.64-1,1.63-.3-1.08.53-2S190.43,465.24,190.44,465.42Z" style="fill:#263238"></path><path d="M192.7,470.29c-.17,0-.43-.91.07-1.94s1.37-1.43,1.45-1.27-.47.7-.86,1.55S192.89,470.27,192.7,470.29Z" style="fill:#263238"></path><path d="M186.09,459.16c-.08.17-1-.1-2,0s-1.91.39-2,.23.7-.83,2-.89S186.18,459,186.09,459.16Z" style="fill:#263238"></path><path d="M186.81,454.9a3.64,3.64,0,0,1-1.94,0,8.93,8.93,0,0,1-2-.64,8.09,8.09,0,0,1-1.11-.6,2.41,2.41,0,0,1-.58-.46.82.82,0,0,1-.08-1,1,1,0,0,1,.83-.43,3,3,0,0,1,.73.11,7.06,7.06,0,0,1,1.2.42,6.89,6.89,0,0,1,1.78,1.19c.89.83,1.19,1.54,1.12,1.58s-.52-.54-1.42-1.23a8.11,8.11,0,0,0-1.72-1,7.59,7.59,0,0,0-1.11-.36c-.41-.11-.76-.11-.86.07s0,.1,0,.22a1.7,1.7,0,0,0,.42.33,9.86,9.86,0,0,0,1,.59,10.92,10.92,0,0,0,1.87.74A13.63,13.63,0,0,1,186.81,454.9Z" style="fill:#263238"></path><path d="M186.56,455.17a3,3,0,0,1-.5-1.87,6.23,6.23,0,0,1,.28-2.12,6.53,6.53,0,0,1,.5-1.17,1.61,1.61,0,0,1,1.25-1,.91.91,0,0,1,.8.55,2.28,2.28,0,0,1,.19.71,4.33,4.33,0,0,1-.85,3.29c-.76,1-1.55,1.22-1.56,1.16s.59-.46,1.18-1.42a4.4,4.4,0,0,0,.63-1.81,4.23,4.23,0,0,0,0-1.12c-.06-.41-.21-.74-.37-.7s-.52.3-.68.63a5.71,5.71,0,0,0-.48,1,6.88,6.88,0,0,0-.39,1.93C186.47,454.44,186.66,455.14,186.56,455.17Z" style="fill:#263238"></path><g style="opacity:0.30000000000000004"><polygon points="167.66 455.48 167.7 459.87 186.21 459.87 186.21 455.89 167.66 455.48"></polygon></g><polyline points="157.02 318.03 151.35 372.69 147.28 455 125.56 455 124.97 279.82 187.16 284.25 200.05 376.16 188.89 456.61 165.06 456.61 170.63 380.12 157.02 318.03" style="fill:#263238"></polyline><path d="M157,318a32.39,32.39,0,0,0,4.23,4.17,33.08,33.08,0,0,0,4.58,3.77,31.94,31.94,0,0,0-4.22-4.17A32.8,32.8,0,0,0,157,318Z" style="fill:#455a64"></path><path d="M157.09,316.94a63.76,63.76,0,0,0-.12-7,64.51,64.51,0,0,0-.4-7,36.14,36.14,0,0,0-.14,7A36.54,36.54,0,0,0,157.09,316.94Z" style="fill:#455a64"></path><path d="M149.9,296.54a1.62,1.62,0,0,0-.35,0l-1.07-.06-4.12-.2-14.72-.62h-.26v.25c0,4.6,0,9.8,0,15.29v.48l.17.07,9.58,3.83.09,0,.09,0,8.47-2.94.13-.05v-.14c.62-4.77,1.14-8.74,1.51-11.59.16-1.33.29-2.4.39-3.19a9.42,9.42,0,0,0,.1-1.09,1.61,1.61,0,0,0-.06.31c0,.24-.09.52-.15.86-.13.8-.3,1.88-.51,3.23-.42,2.8-1,6.72-1.72,11.41l.15-.18-8.49,2.88h.18l-9.57-3.86.17.25v-.3c0-5.49,0-10.69,0-15.29l-.25.25,14.56.36,4.19.07h1.53Z" style="fill:#455a64"></path><path d="M181.26,296.8l-.32,0-1,0-3.73-.11-13.43-.32h-.25v.25c.15,4.54.31,9.76.49,15.33V312l.11.08,1.56,1,7.87,5.13.14.09.14-.08,8.87-5.41.11-.07v-.13c-.17-4.76-.31-8.73-.41-11.58-.05-1.32-.1-2.39-.13-3.18s-.07-1.1-.08-1.09a1.27,1.27,0,0,0,0,.32V298c0,.81,0,1.89,0,3.24,0,2.81.1,6.74.17,11.44l.11-.19-8.91,5.34h.28L165,312.66l-1.55-1,.12.22c-.2-5.57-.39-10.8-.56-15.34l-.24.25,13.29.07h4.79Z" style="fill:#455a64"></path><path d="M131.68,321.56a13.94,13.94,0,0,0,2.95-.09c1.81-.13,4.31-.38,7.06-.74s5.23-.75,7-1.08a14.91,14.91,0,0,0,2.87-.67,17.17,17.17,0,0,0-2.93.29l-7,.93-7,.89A17.76,17.76,0,0,0,131.68,321.56Z" style="fill:#455a64"></path><path d="M132.19,382.49s.09.31.51.69a3.47,3.47,0,0,0,2.22.75,5.21,5.21,0,0,0,3.25-1.24,23.28,23.28,0,0,0,3-3,41,41,0,0,0,4.39-6.19,13.16,13.16,0,0,0,1.38-2.83,29.82,29.82,0,0,0-1.7,2.63,55.7,55.7,0,0,1-4.48,6,25.26,25.26,0,0,1-2.86,2.95,5,5,0,0,1-2.94,1.25,3.44,3.44,0,0,1-2.09-.54C132.4,382.72,132.23,382.46,132.19,382.49Z" style="fill:#455a64"></path><path d="M175.09,384.41s0,.28.29.7a4.49,4.49,0,0,0,1.5,1.42,5.72,5.72,0,0,0,3,.79,7.18,7.18,0,0,0,3.59-1.14,12.74,12.74,0,0,0,4.32-5.15,11,11,0,0,0,1.07-2.56,19.37,19.37,0,0,0-1.41,2.38,13.64,13.64,0,0,1-4.27,4.87,6.82,6.82,0,0,1-3.31,1.1,5.6,5.6,0,0,1-2.78-.62A6.07,6.07,0,0,1,175.09,384.41Z" style="fill:#455a64"></path><path d="M173.7,376.16a5.4,5.4,0,0,0,1.79,1,13.94,13.94,0,0,0,4.86,1.08,14.12,14.12,0,0,0,5-.67,5.57,5.57,0,0,0,1.86-.89,22.76,22.76,0,0,1-6.78,1A22.44,22.44,0,0,1,173.7,376.16Z" style="fill:#455a64"></path><path d="M156.22,185.17l-23.43-.29,2.62-19.26s-1.6-.33-1.71-8.71-.51-22.62-.51-22.62h0A31,31,0,0,1,163.5,138l1.29,1Z" style="fill:#ffbe9d"></path><path d="M162.07,149.23c.15-.06,6-1.7,5.77,4s-6.11,4.36-6.11,4.19S162.07,149.23,162.07,149.23Z" style="fill:#ffbe9d"></path><path d="M134.2,148c-.15-.06-5.43-1.43-5.25,4.29s6.11,4.37,6.12,4.2S134.2,148,134.2,148Z" style="fill:#ffbe9d"></path><path d="M164,148.59c-.88,4.8-.71,7.32-1.53,10.53-1.3,5.07-3.91,9-8.64,11.5s-11.14,2.49-15.2-1c-2.83-2.4-4.83-5.1-5.25-8.71s-.83-10-.86-13.61c0-6.54-.5-12.79-.5-12.79l19.35-3.38,11,6.32Z" style="fill:#263238"></path><path d="M144,173.51a6.46,6.46,0,0,0,3.39.29,6.32,6.32,0,0,0,3.24-1c0-.14-1.48.29-3.3.48S144.05,173.36,144,173.51Z" style="fill:#263238"></path><path d="M163.06,156.75c.56-4.92.93-10.54,1.73-15.73.3-2,1-4.75.84-6.71a15.69,15.69,0,0,0-1.28-5.76,8.46,8.46,0,0,0-5.88-4.39,8.79,8.79,0,0,0-7.18,1.85,6.56,6.56,0,0,0-6.64-2.54,6.31,6.31,0,0,0-4.81,5.1,4.64,4.64,0,0,0-5.28-.55,4.27,4.27,0,0,0-1.92,4.77,4.33,4.33,0,0,0-3.2,2.4,4.09,4.09,0,0,0,.32,3.91c.9,1.33,2.52,2.06,3.5,3.33a4.63,4.63,0,0,1,.3,5.17" style="fill:#263238"></path><path d="M136.18,139a1.24,1.24,0,0,0,.22.53,3.74,3.74,0,0,0,1.12,1.23,4.15,4.15,0,0,0,2.52.77,4.42,4.42,0,0,0,3.1-1.41l-.41-.11a3.94,3.94,0,0,0,2.59,2.87,4.77,4.77,0,0,0,4.36-.53,6.36,6.36,0,0,0,2.46-3.11l-.47.06a5.47,5.47,0,0,0,4.38,2.31,5.13,5.13,0,0,0,3.69-1.45,4.88,4.88,0,0,0,1.33-2.19,2.11,2.11,0,0,0,.12-.91s-.09.32-.29.86a5.27,5.27,0,0,1-1.39,2,4.9,4.9,0,0,1-3.44,1.25,5.11,5.11,0,0,1-4-2.16l-.28-.43-.19.48a6,6,0,0,1-2.26,2.85,4.25,4.25,0,0,1-3.87.49,3.51,3.51,0,0,1-2.32-2.47l-.08-.48-.33.37a4,4,0,0,1-5.1.71A5.45,5.45,0,0,1,136.18,139Z" style="fill:#455a64"></path><path d="M136.22,136.71a5,5,0,0,1,.82-2.09,3.54,3.54,0,0,1,2-1.32,3.81,3.81,0,0,1,2.95.54l.47.33-.05-.56a4.12,4.12,0,0,1,.2-1.65,4.52,4.52,0,0,1,2.38-2.67,4.74,4.74,0,0,1,3-.26,6.47,6.47,0,0,1,2.51,1.37s-.11-.27-.48-.64a4.78,4.78,0,0,0-1.93-1.08,4.82,4.82,0,0,0-6,3.12,4.57,4.57,0,0,0-.21,1.86l.42-.24a4.24,4.24,0,0,0-3.38-.56,3.76,3.76,0,0,0-2.2,1.57,3.55,3.55,0,0,0-.6,1.65C136.13,136.49,136.19,136.71,136.22,136.71Z" style="fill:#455a64"></path><path d="M148.56,136.87c.07,0,0-.32,0-.78a3.67,3.67,0,0,1,.61-1.7c.39-.59.85-1.19,1.12-1.52s.57-.08.62-.11,0-.13-.13-.23a.68.68,0,0,0-.73.05,4.17,4.17,0,0,0-.67.66,7.48,7.48,0,0,0-.68.88,3.13,3.13,0,0,0-.52,2C148.26,136.64,148.5,136.9,148.56,136.87Z" style="fill:#455a64"></path><path d="M160,129.67c.06,0,0-.45-.36-1a2.71,2.71,0,0,0-.89-.9,2.35,2.35,0,0,0-1.57-.33,3.76,3.76,0,0,0-2.35,1.42c-.43.53-.63.89-.58.93s.38-.24.86-.68a4.15,4.15,0,0,1,2.14-1.16,2.28,2.28,0,0,1,2.07.93C159.77,129.33,160,129.7,160,129.67Z" style="fill:#455a64"></path><path d="M157,154a12.41,12.41,0,0,0,2.77-7.75c-.16,0-.47,1.8-1.23,3.93S156.89,153.88,157,154Z" style="fill:#455a64"></path><path d="M154.43,155.34a6.92,6.92,0,0,0,1.43-2.61,6.78,6.78,0,0,0,.71-2.87,10.81,10.81,0,0,0-1.21,2.69A10.09,10.09,0,0,0,154.43,155.34Z" style="fill:#455a64"></path><path d="M138.12,155.73a8.72,8.72,0,0,0,.67,5,9,9,0,0,0,3,4.2,30.7,30.7,0,0,1-2.44-4.38A30.75,30.75,0,0,1,138.12,155.73Z" style="fill:#455a64"></path><path d="M135.52,151.55a7.08,7.08,0,0,0-.38,4.53,7.22,7.22,0,0,0,2,4.12,25.92,25.92,0,0,1-1.47-4.21A24.64,24.64,0,0,1,135.52,151.55Z" style="fill:#455a64"></path><path d="M104.19,231.73v24s18,39.78,18,39.17,6.43-25.11,6.43-25.11l-7.24-19.11-.68-12.48-14.86-29.72s-3.69,20-3.09,21.2A8,8,0,0,0,104.19,231.73Z" style="fill:#F17300"></path><path d="M126.61,184.07s-16.36,8.49-18.38,11.11-2.42,13.33-2.42,13.33l20.8,41.6,1,16.76s-6.26,13.05-6.26,22.17v1l-1,12.52,25,2.22s1.42-6.87,1.42-6.26,1.82,6.26,1.82,6.26H190l-1.53-27.57-7.05-42.56s3-24.41,3.15-25.3c.26-1.58,26.48-13.21,26.48-13.21l12.35-6.67a10,10,0,0,0,5.22-8.76h0a10,10,0,0,0-5.54-8.92l-34.85-17.25-8.11,13.64,10.62,6.82,7.61,5.27-21.11,2s-3.75-4.9-5.36-4.9-14.54,3-14.54,3l.2-3.23s-3.43-3.84-7.27-3.64-20,4.85-20,4.85Z" style="fill:#F17300"></path><path d="M185.32,159.43h0l-9.09-5.29-13.83-7.5s-4.56-3.46-6.36-3.36a5.52,5.52,0,0,0-3.72,2.55c-.08.41.67,1.17,1.83.85.38-.1,1.44-.87,2-.75a4.16,4.16,0,0,1,2.58,1.86.62.62,0,0,1-.5,1s-7.83-2-10.75-.4a1.56,1.56,0,0,0-.79,1.92c.21.51.77,1,2.14.7,2.75-.53,7.29,1.58,7.29,1.58s-10.16-.33-11.9.54c-.69.34-1.44,2.56.63,2.79,2.44.26,7.25.16,7.25.16s4.54.63,3.81,1.48-7.7.92-8.23,1-2.89,0-2.76,1.92c.07,1.09,2.11,1.78,4.75,1.69,2.24-.07,9.19-.21,10,1.06s.26,2.19-.38,2.51a38.8,38.8,0,0,1-6.19,1c-.92,0-2.13,1.7.11,2.24,2.44.6,4.5.11,6.61.11s4.81.17,10.73-2.15c0,0,4-1.81,9.44,1.31Z" style="fill:#ffbe9d"></path><path d="M156.32,180.57c0,.15-6.37,1-14.27,2s-14.33,1.62-14.34,1.47,6.37-1,14.28-2S156.31,180.43,156.32,180.57Z" style="fill:#263238"></path><path d="M154.9,269a4.6,4.6,0,0,1,.35-.57l1.1-1.59c1-1.37,2.33-3.38,4-5.9s3.52-5.54,5.51-9,4-7.27,6.07-11.38,3.76-8.1,5.27-11.77,2.73-7,3.7-9.86,1.73-5.14,2.22-6.75c.24-.75.43-1.36.58-1.84a4.13,4.13,0,0,1,.24-.63,3.29,3.29,0,0,1-.13.66c-.13.48-.29,1.1-.5,1.87-.43,1.63-1.12,4-2.06,6.81s-2.14,6.23-3.61,9.92-3.23,7.7-5.24,11.82-4.12,8-6.12,11.39-3.93,6.45-5.62,8.94-3.1,4.47-4.12,5.8l-1.17,1.54A3,3,0,0,1,154.9,269Z" style="fill:#263238"></path><path d="M121,294.94a3.92,3.92,0,0,1,0-.56c0-.4.09-.94.15-1.6.15-1.39.44-3.42.89-5.95a137.88,137.88,0,0,1,5.35-20.05v.1c-.22-3.48-.45-7.23-.68-11.12-.12-1.93-.23-3.83-.34-5.64l0,.1c-4.45-8.67-8.13-16.44-10.64-22.08-1.26-2.81-2.22-5.1-2.86-6.68-.29-.76-.53-1.37-.71-1.83A3.41,3.41,0,0,1,112,219a3.54,3.54,0,0,1,.3.61l.79,1.79c.7,1.55,1.7,3.82,3,6.61,2.59,5.59,6.33,13.34,10.78,22l0,0v.05c.11,1.81.23,3.71.34,5.64.24,3.89.46,7.64.66,11.12v0l0,.05a149.11,149.11,0,0,0-5.51,19.93c-.5,2.52-.83,4.54-1,5.92l-.24,1.59A1.85,1.85,0,0,1,121,294.94Z" style="fill:#263238"></path><path d="M148.16,286.78a84.54,84.54,0,0,1-1.11,9.19,82,82,0,0,1-1.62,9.1,81.62,81.62,0,0,1,1.11-9.18A82.51,82.51,0,0,1,148.16,286.78Z" style="fill:#263238"></path><path d="M177.79,201.89a3.27,3.27,0,0,1-.53-.72c-.31-.48-.73-1.2-1.21-2.11a38.47,38.47,0,0,1-2.93-7.49,39,39,0,0,1-1.34-7.93c-.06-1-.07-1.86-.05-2.43a3.31,3.31,0,0,1,.08-.89c.09,0,.12,1.26.34,3.29a47.26,47.26,0,0,0,4.23,15.28A32.08,32.08,0,0,1,177.79,201.89Z" style="fill:#263238"></path><g style="opacity:0.30000000000000004"><path d="M156,267.09a7.18,7.18,0,0,0,6.42-.42,17.56,17.56,0,0,0,4.94-4.44A64.83,64.83,0,0,0,182,216.73,187.48,187.48,0,0,1,156.83,266"></path></g><g style="opacity:0.30000000000000004"><path d="M112.82,221.08a8.2,8.2,0,0,0-3.26-2.36,2.44,2.44,0,0,0-3.13,1.3,3.55,3.55,0,0,0,.26,2c1.93,5.69,3.92,11.51,7.7,16.18a9.27,9.27,0,0,0,2.37,1.89c.9.57,3.35,1.07,3.69.1a6,6,0,0,0,0-2.5s-5.39-11-8-16.65"></path></g><g style="opacity:0.30000000000000004"><path d="M198.13,180.26a14.79,14.79,0,0,0,7.3-.13c-3.75-2.84-8.64-3.46-13.3-4.09l6,4.22"></path></g><path d="M213.57,180.68a11.76,11.76,0,0,1-2.33,0l-5.58-.16-5.58-.09a11.76,11.76,0,0,1-2.32-.13,9.54,9.54,0,0,1,2.31-.24c1.43-.07,3.41-.11,5.6-.06s4.17.18,5.6.31A9.94,9.94,0,0,1,213.57,180.68Z" style="fill:#263238"></path><path d="M110,248c0-.06.53.3,1.29.88a14.62,14.62,0,0,0,3.1,1.95,6.45,6.45,0,0,0,3.53.46c.91-.17,1.41-.51,1.46-.43s-.41.51-1.38.79a5.93,5.93,0,0,1-3.81-.34,11.3,11.3,0,0,1-3.14-2.15C110.37,248.45,110,248,110,248Z" style="fill:#263238"></path><polygon points="148.16 288.67 153.08 304.83 148.62 304.83 146.55 297.56 148.16 288.67" style="opacity:0.30000000000000004"></polygon></g></svg>