<svg class="animated" id="freepik_stories-work-time" xmlns="http://www.w3.org/2000/svg" viewBox="0 0 500 500" version="1.1" xmlns:xlink="http://www.w3.org/1999/xlink" xmlns:svgjs="http://svgjs.com/svgjs"><style>svg#freepik_stories-work-time:not(.animated) .animable {opacity: 0;}svg#freepik_stories-work-time.animated #freepik--Hourglass--inject-2 {animation: 1s 1 forwards cubic-bezier(.36,-0.01,.5,1.38) slideLeft,6s Infinite  linear heartbeat;animation-delay: 0s,2s;}svg#freepik_stories-work-time.animated #freepik--Plant--inject-2 {animation: 1.5s Infinite  linear floating;animation-delay: 0s;}            @keyframes slideLeft {                0% {                    opacity: 0;                    transform: translateX(-30px);                }                100% {                    opacity: 1;                    transform: translateX(0);                }            }                    @keyframes heartbeat {                0% {                    transform: scale(1);                }                10% {                    transform: scale(1.1);                }                30% {                    transform: scale(1);                }                40% {                    transform: scale(1);                }                50% {                    transform: scale(1.1);                }                60% {                    transform: scale(1);                }                100% {                    transform: scale(1);                }            }                    @keyframes floating {                0% {                    opacity: 1;                    transform: translateY(0px);                }                50% {                    transform: translateY(-10px);                }                100% {                    opacity: 1;                    transform: translateY(0px);                }            }        .animator-hidden { display: none; }</style><g id="freepik--Floor--inject-2" class="animable animator-hidden" style="transform-origin: 255.09px 454px;"><path d="M470.81,454c0,.14-96.59.26-215.71.26S39.37,454.16,39.37,454s96.57-.26,215.73-.26S470.81,453.88,470.81,454Z" style="fill: rgb(38, 50, 56); transform-origin: 255.09px 454px;" id="ellqb6cva1wb" class="animable"></path></g><g id="freepik--Hourglass--inject-2" class="animable" style="transform-origin: 238.373px 276.005px;"><path d="M156.18,110.24c-16.05,25.24-15,60.24,2.54,84.47,11.69,16.16,29.22,27,43.14,41.26s24.5,35.31,17.15,53.85c-7.48,18.87-29.39,26.54-45.79,38.5a86.54,86.54,0,0,0-20.88,118.22H322.76S352.7,389.49,314.21,346s-59.16-44.19-57.74-72.71,21.38-37.77,32.79-48.47,67-35.63,34.21-114.59Z" style="fill: rgb(250, 250, 250); transform-origin: 235.742px 278.385px;" id="elwntm33e68pm" class="animable"></path><path d="M156.18,110.24l2.93,0,8.64,0,33.26,0,122.46-.09h.13l0,.12A157,157,0,0,1,330,128.62a106.73,106.73,0,0,1,3.62,20,79.23,79.23,0,0,1-1.08,21.17,68.07,68.07,0,0,1-7.7,20.58,73.76,73.76,0,0,1-6.42,9.31,85.07,85.07,0,0,1-7.85,8.4,113.75,113.75,0,0,1-8.91,7.55c-3.1,2.4-6.34,4.66-9.5,7.06-1.58,1.19-3,2.53-4.54,3.87s-3.07,2.59-4.65,3.85c-3.15,2.52-6.33,5-9.33,7.79a49.9,49.9,0,0,0-14,20.08A49,49,0,0,0,257,270.6c-.09,1-.23,2.1-.27,3.16s-.08,2.12,0,3.18a35.49,35.49,0,0,0,.64,6.34A28.93,28.93,0,0,0,262.43,295a64.34,64.34,0,0,0,8.83,9.57c6.47,5.91,13.34,11.56,19.91,17.66s13,12.46,19.2,19.19a113.78,113.78,0,0,1,8.86,10.54,73.42,73.42,0,0,1,7.15,11.91,78.34,78.34,0,0,1,7.34,27,99.09,99.09,0,0,1-1.66,28.4,116.68,116.68,0,0,1-3.66,13.94A102.51,102.51,0,0,1,323,446.66l-.07.14H152.2l-.07-.11a87.85,87.85,0,0,1-14.27-40.23,84.82,84.82,0,0,1,5.9-40.6,88.4,88.4,0,0,1,22.52-32.18,102.56,102.56,0,0,1,15.38-11.22c5.32-3.3,10.69-6.36,15.76-9.7a72.44,72.44,0,0,0,13.88-11.28,38.06,38.06,0,0,0,8.58-14.88,37.1,37.1,0,0,0,.68-16.61,54.37,54.37,0,0,0-5.27-15.27,74.52,74.52,0,0,0-8.58-13,102.7,102.7,0,0,0-10.38-10.83c-7.21-6.64-14.6-12.45-21.24-18.42-3.33-3-6.48-6-9.39-9.07a85.75,85.75,0,0,1-7.78-9.59,73.48,73.48,0,0,1-9.75-20.21,75.81,75.81,0,0,1-3.32-19.15c-.14-1.48-.08-2.94-.08-4.37s0-2.82.13-4.17.2-2.67.3-4,.37-2.52.54-3.73A71.18,71.18,0,0,1,152.42,117a26.78,26.78,0,0,1,1.54-3l1.23-2.09c.65-1.11,1-1.67,1-1.67l-1,1.7L154,114a30.15,30.15,0,0,0-1.52,3,71.53,71.53,0,0,0-6.6,21.21c-.17,1.2-.37,2.44-.52,3.71s-.2,2.6-.3,3.95-.1,2.74-.11,4.16-.05,2.88.09,4.36a75.19,75.19,0,0,0,3.35,19.08,73,73,0,0,0,9.74,20.13,84.1,84.1,0,0,0,7.77,9.54c2.9,3.08,6.05,6.08,9.38,9,6.64,6,14,11.75,21.26,18.4A103.36,103.36,0,0,1,207,241.45a75.25,75.25,0,0,1,8.63,13.09,54.58,54.58,0,0,1,5.32,15.37,37.47,37.47,0,0,1-.68,16.79,38.3,38.3,0,0,1-8.66,15.05,73.38,73.38,0,0,1-13.94,11.36c-5.09,3.35-10.46,6.41-15.77,9.71A102.78,102.78,0,0,0,166.58,334a88.06,88.06,0,0,0-22.39,32,84.33,84.33,0,0,0-5.85,40.39,87.46,87.46,0,0,0,14.2,40l-.2-.11H322.76l-.23.14A101,101,0,0,0,327.91,433a116.15,116.15,0,0,0,3.64-13.88,98.48,98.48,0,0,0,1.65-28.26,77.52,77.52,0,0,0-7.29-26.85,73.52,73.52,0,0,0-7.09-11.83,116.64,116.64,0,0,0-8.82-10.5q-9.25-10.07-19.17-19.16c-6.56-6.09-13.41-11.73-19.9-17.67a65.52,65.52,0,0,1-8.91-9.64,29.51,29.51,0,0,1-5.19-11.87,37.68,37.68,0,0,1-.65-6.43c-.05-1.07,0-2.14,0-3.21s.18-2.13.26-3.19a49.68,49.68,0,0,1,2.7-12.39,50.25,50.25,0,0,1,14.13-20.25c3-2.78,6.21-5.3,9.36-7.81,1.58-1.26,3.13-2.53,4.64-3.83s3-2.7,4.56-3.9c3.18-2.4,6.41-4.66,9.5-7.05a115.17,115.17,0,0,0,8.89-7.51,86.48,86.48,0,0,0,7.81-8.35,75.9,75.9,0,0,0,6.39-9.26,67.61,67.61,0,0,0,7.66-20.44,78.74,78.74,0,0,0,1.09-21,106.89,106.89,0,0,0-3.59-20,158.72,158.72,0,0,0-6.32-18.41l.17.11-122.39-.09-33.28,0-8.66,0Z" style="fill: rgb(38, 50, 56); transform-origin: 235.76px 278.475px;" id="elpc940s4snl" class="animable"></path><path d="M316.67,156.53c25.1,4.13-14.47,48.59-36.88,66.13-13,10.15-26.9,21.17-33.06,36.45-7,17.34-1.81,36.82-5.19,54.26a2.42,2.42,0,0,1-4.8-.51c.16-11.45-.14-22.89-2-34.16-2.69-16-8.83-31.79-20-43.5-9.15-9.57-21.14-15.92-30.89-24.86-14.24-13.05-28.87-29.88-30.3-49.14,0,0,27.34-22,42.52-19.25,17.74,3.25,35.2,30.62,62.68,27.49C277.87,167.25,287.56,151.75,316.67,156.53Z" style="fill: #F17300; transform-origin: 239.137px 228.535px;" id="el6tub8m998tu" class="animable"></path><path d="M318.9,394.48c-.63-6.28-2.31-13.38-7.88-16.34-3.37-1.8-7.48-1.6-11.18-.63s-7.17,2.66-10.83,3.75a35.47,35.47,0,0,1-22.17-.71c-6.81-2.5-12.65-7-19-10.58s-13.72-6.2-20.76-4.45c-12.14,3-18.46,17.64-30.46,21.17-5.34,1.56-11.07.68-16.49-.54s-10.87-2.81-16.42-2.6c-4.36.16-8.89,1.67-11.94,4.65l0,0-.08.09a11.82,11.82,0,0,0-1.38,1.62c-3.72,5-4.32,11.63-3.17,17.69,1.28,6.79,4.45,13.06,7.85,19.07,4,7.08,8.56,14.12,15.18,18.84,8.18,5.83,18.45,1.81,28.46,2.6,23.33,1.84,48.43,3.09,71.77,1.29,12.33-1,23.88.38,33.66-7.19,6.88-5.32,11.36-13.34,13.52-21.76S319.77,403.13,318.9,394.48Z" style="fill: #F17300; transform-origin: 233.024px 407.619px;" id="elcxg7jb2dkws" class="animable"></path><g id="eljzqkua1g69e"><g style="opacity: 0.24; transform-origin: 283.425px 414.109px;" class="animable" id="elq0xmbsc2lyb"><path d="M274.86,382.46c-1.31,2-1.88,4.72-.61,6.76s3,3.91,3.54,6.26c.87,3.68-1.35,7.28-3,10.69a34.05,34.05,0,0,0-3.31,19.73,26.84,26.84,0,0,0,9.79,17.23c2.37,1.83,5.45,3.25,8.31,2.35,2.69-.84,4.42-3.57,5-6.34s.09-5.62-.26-8.41a130.64,130.64,0,0,1,1-39.08c.38-2.15.74-4.61-.62-6.32a7.32,7.32,0,0,0-3.59-2c-5.2-1.73-10.81.19-16.2-.83" id="elf9jhtpj4m99" class="animable" style="transform-origin: 283.425px 414.109px;"></path></g></g><path d="M139.83,454.28s-.47-7.82,9.73-12.18H328.81s9.35,4.74,10.5,12Z" style="fill: rgb(38, 50, 56); transform-origin: 239.568px 448.19px;" id="elvkoqxh94mg8" class="animable"></path><path d="M325,111.19l-.29.13-168.55-1.08s-.6-.38-1.49-1.09a6.39,6.39,0,0,1,4-11.42l163.6,1.32C329,99.11,331.12,108.31,325,111.19Z" style="fill: rgb(38, 50, 56); transform-origin: 240.422px 104.525px;" id="el5fr9vlloret" class="animable"></path><g id="el40uvpoun2fv"><g style="opacity: 0.24; transform-origin: 242.172px 190.986px;" class="animable" id="elwdkfmgodppd"><path d="M298,175.49c.34.65-.93,2-3.34,4.2s-6,5.09-10.46,8.72a137.3,137.3,0,0,1-17,12,68.21,68.21,0,0,1-11.64,5.35,55.12,55.12,0,0,1-6.69,1.85,45.64,45.64,0,0,1-7.23.94,38.6,38.6,0,0,1-14.53-2,52.36,52.36,0,0,1-11.68-6c-3.36-2.22-6.25-4.42-9-6.53s-5.2-4.14-7.42-6.06c-8.85-7.67-13.51-13.31-12.61-14.4s7.2,2.46,17,8.46l8,4.9c2.87,1.74,5.94,3.67,9.08,5.45a50.84,50.84,0,0,0,9.85,4.45,31.63,31.63,0,0,0,10.84,1.28c7.68-.4,15.13-3.1,21.58-6.22s12.29-6.76,17.35-9.6a87.41,87.41,0,0,1,12.52-6.1C295.79,175.07,297.71,174.86,298,175.49Z" id="elt0gh3r7m8g" class="animable" style="transform-origin: 242.172px 190.986px;"></path></g></g><path d="M236.86,334.26a2.9,2.9,0,1,1-.14.06" style="fill: #F17300; transform-origin: 237.932px 336.955px;" id="elsqgzqodunor" class="animable"></path><path d="M176.58,203.38a4.33,4.33,0,0,1-.6-.6L174.35,201c-.69-.79-1.6-1.71-2.53-2.88l-3.18-4c-1.09-1.54-2.32-3.2-3.56-5l-1.83-2.91c-.31-.5-.64-1-.94-1.53l-.88-1.62a67.6,67.6,0,0,1-6.21-14.95,63,63,0,0,1-2.36-16c0-1.25.07-2.46.09-3.65,0-.59,0-1.17.08-1.74s.12-1.13.18-1.68c.13-1.1.21-2.17.36-3.19s.36-2,.53-2.91c.28-1.87.78-3.5,1.13-5,.19-.72.34-1.4.53-2l.55-1.67.77-2.29a4.26,4.26,0,0,1,.3-.79,4.55,4.55,0,0,1-.2.82c-.17.58-.39,1.35-.68,2.32L156,132c-.17.61-.31,1.29-.49,2-.32,1.45-.79,3.09-1,5-.16.92-.32,1.89-.49,2.9s-.21,2.07-.33,3.17c0,.55-.11,1.1-.17,1.67s0,1.15-.06,1.73c0,1.18-.08,2.38-.07,3.62A63.34,63.34,0,0,0,155.72,168a68.82,68.82,0,0,0,6.13,14.86c.29.54.58,1.08.86,1.62s.63,1,.93,1.52l1.8,2.91c1.22,1.84,2.43,3.5,3.49,5l3.12,4c.9,1.19,1.79,2.12,2.45,2.94l1.56,1.85A6.8,6.8,0,0,1,176.58,203.38Z" style="fill: rgb(38, 50, 56); transform-origin: 164.72px 165.285px;" id="el25n2p7qpren" class="animable"></path><path d="M167.09,351.94a2,2,0,0,1,.18-.33l.6-.94c.27-.42.6-.92,1-1.52l.63-1c.25-.33.54-.66.83-1l2-2.4c.77-.83,1.65-1.69,2.58-2.63a67.67,67.67,0,0,1,6.86-5.78c5.31-4,12.16-8,19.58-12.69a112,112,0,0,0,11.23-7.91,52.39,52.39,0,0,0,10.07-10.64,50.37,50.37,0,0,0,8.15-26.83,63.47,63.47,0,0,0-3.84-22.8,85.1,85.1,0,0,0-6.62-14.2c-.93-1.61-1.69-2.83-2.21-3.66l-.59-.94c-.13-.21-.19-.33-.19-.33a1.48,1.48,0,0,1,.23.3l.64.92c.55.8,1.34,2,2.29,3.61a81.16,81.16,0,0,1,6.8,14.18,63.41,63.41,0,0,1,4,22.93,54,54,0,0,1-.55,6.74,49.25,49.25,0,0,1-1.47,6.91A46.82,46.82,0,0,1,223,305.4a52.73,52.73,0,0,1-10.18,10.75,113.44,113.44,0,0,1-11.29,7.92c-7.45,4.65-14.31,8.61-19.62,12.58a70.42,70.42,0,0,0-6.88,5.69c-.93.93-1.82,1.77-2.6,2.59l-2,2.35c-.3.36-.59.69-.84,1l-.65.95-1,1.49-.64.91A2.33,2.33,0,0,1,167.09,351.94Z" style="fill: rgb(38, 50, 56); transform-origin: 199.202px 294.14px;" id="el5pjcf9bo96b" class="animable"></path><path d="M157.79,369.61a3.16,3.16,0,0,1-.22.47l-.72,1.27c-.32.54-.7,1.22-1.09,2s-.89,1.7-1.31,2.75c-.22.52-.46,1.06-.7,1.62s-.44,1.18-.68,1.8c-.48,1.24-.86,2.6-1.3,4A54.34,54.34,0,0,0,150,402.8c.17,1.48.29,2.9.55,4.2.11.65.2,1.29.33,1.89s.27,1.18.4,1.73c.22,1.11.55,2.08.79,2.94s.48,1.6.7,2.2l.47,1.38a1.71,1.71,0,0,1,.13.49,1.9,1.9,0,0,1-.23-.45c-.15-.37-.33-.81-.56-1.35a21.57,21.57,0,0,1-.79-2.18c-.27-.86-.62-1.83-.87-2.94-.14-.55-.28-1.13-.43-1.73s-.24-1.25-.37-1.9c-.28-1.32-.42-2.74-.6-4.23a52.34,52.34,0,0,1,1.78-19.4c.45-1.44.85-2.81,1.36-4.05.25-.62.45-1.23.71-1.8l.74-1.63c.44-1,1-1.93,1.39-2.73a20.73,20.73,0,0,1,1.17-2l.8-1.23C157.67,369.74,157.77,369.6,157.79,369.61Z" style="fill: rgb(38, 50, 56); transform-origin: 153.535px 393.62px;" id="el0108wiawrzvub" class="animable"></path><path d="M281.42,393.65l-.2.14-.62.39-2.43,1.46-1.76,1c-.66.37-1.39.71-2.17,1.1-1.58.76-3.32,1.73-5.38,2.51l-3.2,1.31c-1.11.44-2.32.79-3.54,1.21-2.43.89-5.13,1.53-7.94,2.26a93.09,93.09,0,0,1-37.61,1c-2.86-.58-5.58-1.08-8.06-1.84-1.24-.36-2.46-.64-3.6-1L201.65,402c-2.09-.67-3.89-1.54-5.5-2.22-.8-.35-1.55-.66-2.22-1l-1.82-.95-2.5-1.33-.64-.36-.21-.13s.09,0,.24.09l.66.31,2.54,1.24,1.83.9c.68.32,1.44.61,2.24.95,1.61.64,3.41,1.49,5.51,2.13L205,402.8c1.14.38,2.36.65,3.6,1,2.47.74,5.18,1.21,8,1.78a95.06,95.06,0,0,0,37.42-1c2.8-.72,5.49-1.33,7.92-2.2,1.22-.41,2.42-.74,3.53-1.18l3.2-1.27c2.06-.76,3.81-1.7,5.39-2.43.78-.38,1.52-.71,2.18-1l1.78-1,2.47-1.38.65-.34C281.34,393.67,281.42,393.64,281.42,393.65Z" style="fill: rgb(38, 50, 56); transform-origin: 235.09px 400.565px;" id="elshxlm1sq3vj" class="animable"></path><path d="M291.85,182a1.06,1.06,0,0,1-.21.19l-.66.54c-.61.49-1.46,1.18-2.55,2-2.22,1.76-5.44,4.31-9.51,7.35A137.5,137.5,0,0,1,264.05,202a67,67,0,0,1-9.58,4.41,43.67,43.67,0,0,1-11.06,2.46,42,42,0,0,1-21.24-4.42,72.06,72.06,0,0,1-8.21-4.88c-2.44-1.72-4.67-3.39-6.64-5-4-3.18-7.06-5.87-9.22-7.71l-2.47-2.14-.63-.56-.21-.21s.09,0,.24.16l.67.53,2.53,2.06c2.2,1.8,5.34,4.44,9.32,7.58,2,1.57,4.21,3.22,6.66,4.92a73,73,0,0,0,8.17,4.8,41.85,41.85,0,0,0,21,4.33,43.36,43.36,0,0,0,10.93-2.42,67.07,67.07,0,0,0,9.52-4.35,143.81,143.81,0,0,0,14.89-9.71c4.08-3,7.33-5.5,9.6-7.21l2.61-2,.69-.5A.9.9,0,0,1,291.85,182Z" style="fill: rgb(38, 50, 56); transform-origin: 243.32px 195.468px;" id="elab99zb6rsx6" class="animable"></path><g id="elf6auq4jmk8p"><g style="opacity: 0.24; transform-origin: 231.74px 402.996px;" class="animable" id="eltqzbld4ephq"><path d="M201.66,402.05c4.74-3.66,11.4-2.78,17.26-1.54s11.76,3.23,17.69,2.4c4.47-.63,8.57-2.82,13-3.78s9.76-.25,12.21,3.54a95,95,0,0,1-60.13-.62" id="el352u4qv8lkj" class="animable" style="transform-origin: 231.74px 402.996px;"></path></g></g></g><g id="freepik--Character--inject-2" class="animable animator-hidden" style="transform-origin: 355.685px 347.749px;"><path d="M367,374.91,345.5,350.8l-.22,29.31,6.48,18.8-64.42,11.17-2.73-50.83-4.64-39a10.6,10.6,0,0,1,6.64-11.11l17.73-7,25,4.58,10.05,3.82a27.59,27.59,0,0,1,10.94,7.61l30.24,34.58" style="fill: #F17300; transform-origin: 330.233px 356.11px;" id="eloxyvy3aaqy8" class="animable"></path><path d="M344,345a31.46,31.46,0,0,0,3.63-.26,14.73,14.73,0,0,0,12.11-11.16,33.43,33.43,0,0,0,.55-3.61,3.28,3.28,0,0,1,.09,1,12.19,12.19,0,0,1-.28,2.7,14.44,14.44,0,0,1-12.41,11.45,12.76,12.76,0,0,1-2.71.06A3.11,3.11,0,0,1,344,345Z" style="fill: rgb(255, 255, 255); transform-origin: 352.193px 337.598px;" id="elh6k9xzn5doi" class="animable"></path><path d="M345.87,378.86c.15,0,.19-10.16.09-22.68s-.31-22.67-.46-22.67-.19,10.15-.09,22.68S345.72,378.86,345.87,378.86Z" style="fill: rgb(38, 50, 56); transform-origin: 345.685px 356.185px;" id="elsaj40mmgpwa" class="animable"></path><path d="M343.51,386.31l-38.92-15.67a8.9,8.9,0,0,1-5.55-7.57l-2.85-37.32s.34-15.88-9.58-16.65L281,311.32c-7.29,3.87-9.09,14.49-8.1,22.68,1.41,11.64,2,28.12,3.57,38.22,1.3,8.27,6,15.54,14.12,17.67l47.94,10.38Z" style="fill: #F17300; transform-origin: 308.08px 354.685px;" id="elfjd50gd7ltw" class="animable"></path><path d="M296.75,331.44a4.84,4.84,0,0,1,.12.85c.06.61.15,1.43.25,2.46.2,2.19.48,5.27.82,9.05s.72,8.39,1.16,13.43c.1,1.27.21,2.56.32,3.88a30.15,30.15,0,0,0,.5,4,6.61,6.61,0,0,0,1.94,3.49,13,13,0,0,0,3.59,2.24c10.73,4.64,20.62,8.48,27.8,11.17l8.53,3.14,2.32.85a5.59,5.59,0,0,1,.79.33,4.8,4.8,0,0,1-.83-.23l-2.35-.76c-2-.68-5-1.69-8.58-3-7.23-2.6-17.13-6.38-27.9-11A13.61,13.61,0,0,1,301.5,369a7.13,7.13,0,0,1-2.08-3.76,29.16,29.16,0,0,1-.49-4.06c-.11-1.33-.21-2.62-.31-3.89-.39-5-.75-9.6-1-13.44s-.5-6.87-.66-9.06c-.07-1-.12-1.86-.15-2.47A5.09,5.09,0,0,1,296.75,331.44Z" style="fill: rgb(38, 50, 56); transform-origin: 320.82px 358.885px;" id="elazy4r1art19" class="animable"></path><path d="M274.45,351.73a2.5,2.5,0,0,1,.07.5l.13,1.44c.12,1.33.27,3.12.46,5.3s.49,4.89.88,7.83a75.74,75.74,0,0,0,1.75,9.45,14.23,14.23,0,0,0,1.9,4.51,27.52,27.52,0,0,0,2.91,3.57,25,25,0,0,0,6.23,4.67,23.5,23.5,0,0,0,6.84,2.24,2,2,0,0,1-.51,0,11.22,11.22,0,0,1-1.44-.19,18.91,18.91,0,0,1-5.06-1.71,24.39,24.39,0,0,1-6.4-4.66,26.52,26.52,0,0,1-3-3.63,14.52,14.52,0,0,1-2-4.65,70.74,70.74,0,0,1-1.73-9.53c-.36-3-.6-5.62-.76-7.86s-.25-4.06-.3-5.32c0-.58,0-1.06,0-1.45A1.61,1.61,0,0,1,274.45,351.73Z" style="fill: rgb(38, 50, 56); transform-origin: 285.016px 371.493px;" id="elsfbhzxowntm" class="animable"></path><path d="M291.09,377.84a5.76,5.76,0,0,1,.71-2.07,13.42,13.42,0,0,1,7.9-6.75,5.65,5.65,0,0,1,2.16-.37,21.52,21.52,0,0,1-2,.72,15.3,15.3,0,0,0-4.41,2.63,15.49,15.49,0,0,0-3.29,3.94C291.46,377.09,291.17,377.87,291.09,377.84Z" style="fill: rgb(38, 50, 56); transform-origin: 296.475px 373.244px;" id="eloq90c6g8ca" class="animable"></path><path d="M298.75,349.46a.92.92,0,0,1,.24.11l.7.37a25.38,25.38,0,0,0,2.78,1.17,22,22,0,0,0,10.91.94,21.54,21.54,0,0,0,13.56-8.43,17.91,17.91,0,0,0,3.55-8.82,12,12,0,0,0-.52-5,10.2,10.2,0,0,0-2.8-4.29,8.59,8.59,0,0,0-4.57-2.22,5.45,5.45,0,0,0-4.58,1.29,3,3,0,0,0-.9,2.07,3.62,3.62,0,0,0,.76,2.14,5.84,5.84,0,0,0,4,2.07,16.3,16.3,0,0,0,14.53-5.73,16.32,16.32,0,0,0,2.94-5.51,17.41,17.41,0,0,0,.74-4.69,17.89,17.89,0,0,0-.22-3c-.06-.31-.11-.57-.14-.77a1.41,1.41,0,0,1,0-.27,12.65,12.65,0,0,1,.6,4,16.8,16.8,0,0,1-.66,4.77,16.46,16.46,0,0,1-17.83,11.63,6.29,6.29,0,0,1-4.28-2.24,4.09,4.09,0,0,1-.86-2.44,3.46,3.46,0,0,1,1-2.43,6,6,0,0,1,5-1.44,9,9,0,0,1,4.85,2.35,10.54,10.54,0,0,1,2.94,4.51,12.5,12.5,0,0,1,.54,5.2,18.31,18.31,0,0,1-3.67,9,21.49,21.49,0,0,1-24.93,7.4A15.48,15.48,0,0,1,298.75,349.46Z" style="fill: rgb(255, 255, 255); transform-origin: 319.54px 331.739px;" id="elvgmpjl7yvlc" class="animable"></path><path d="M273.25,339.51a3.19,3.19,0,0,1,.64-.8,14.38,14.38,0,0,1,2.1-1.83,17.66,17.66,0,0,1,8.61-3.05,16.64,16.64,0,0,1,5.08.21,15.46,15.46,0,0,1,3.91,1.38,18,18,0,0,1,2.38,1.44,3.36,3.36,0,0,1,.78.66c-.06.08-1.22-.8-3.32-1.77a16.3,16.3,0,0,0-8.77-1.4,18.46,18.46,0,0,0-8.46,2.83C274.27,338.47,273.32,339.58,273.25,339.51Z" style="fill: rgb(255, 255, 255); transform-origin: 285px 336.619px;" id="eldrgonacj2st" class="animable"></path><path d="M279.48,312.82a15.39,15.39,0,0,0,3.15,2.29,11.22,11.22,0,0,0,4,1.18,10.66,10.66,0,0,0,5-.7,10.5,10.5,0,0,0,4-3,11.5,11.5,0,0,0,2-3.67,16,16,0,0,0,.61-3.85,3.5,3.5,0,0,1,.13,1.06,9.74,9.74,0,0,1-.39,2.9,11.18,11.18,0,0,1-2,3.86,10.22,10.22,0,0,1-9.5,3.92,11.1,11.1,0,0,1-4.13-1.32,9.63,9.63,0,0,1-2.32-1.78A2.86,2.86,0,0,1,279.48,312.82Z" style="fill: rgb(255, 255, 255); transform-origin: 288.926px 310.987px;" id="eldqg049j9p6" class="animable"></path><path d="M313.4,374.19a3.71,3.71,0,0,1,.08-.74,7.94,7.94,0,0,1,.69-2,11.08,11.08,0,0,1,5.82-5.06,17.05,17.05,0,0,1,11.45-.41c2.06.61,4.42,1.37,6,3.38a3.59,3.59,0,0,1,.44,3.66,5.8,5.8,0,0,1-2.77,2.61,8.9,8.9,0,0,1-3.69.92,5.41,5.41,0,0,1-3.54-1.1,4.52,4.52,0,0,1-1.58-3.21,8.07,8.07,0,0,1,.53-3.37,15.14,15.14,0,0,1,8-8.12,15.8,15.8,0,0,1,7.66-1.32,10.89,10.89,0,0,1,2.8.59c0,.07-1-.26-2.82-.39A16,16,0,0,0,330.59,364a14,14,0,0,0-3.35,5,7.57,7.57,0,0,0-.49,3.17,4,4,0,0,0,1.42,2.85,4.86,4.86,0,0,0,3.2,1,8.26,8.26,0,0,0,3.46-.86,5.34,5.34,0,0,0,2.54-2.37,3.11,3.11,0,0,0-.38-3.15,7.21,7.21,0,0,0-2.61-2.06,18.7,18.7,0,0,0-3.07-1.15,16.82,16.82,0,0,0-11.18.29,11.06,11.06,0,0,0-5.78,4.81A10.69,10.69,0,0,0,313.4,374.19Z" style="fill: rgb(255, 255, 255); transform-origin: 329.345px 367.969px;" id="el6pvk713px37" class="animable"></path><path d="M287.48,388.24c0-.1,1.48-.22,3.73-1A18.65,18.65,0,0,0,303.15,374c.57-2.32.55-3.83.65-3.82a3.46,3.46,0,0,1,.05,1.05,15.17,15.17,0,0,1-.34,2.85,17.94,17.94,0,0,1-12.18,13.47,15.38,15.38,0,0,1-2.8.63A3.65,3.65,0,0,1,287.48,388.24Z" style="fill: rgb(255, 255, 255); transform-origin: 295.675px 379.217px;" id="elpfmn730u6mg" class="animable"></path><path d="M274.86,359.23a2,2,0,0,1,.47-.19c.32-.1.78-.24,1.39-.4a17.18,17.18,0,0,1,5.31-.54,11.16,11.16,0,0,1,3.6.89,8.35,8.35,0,0,1,3.36,2.64,6.9,6.9,0,0,1,1.31,4.54,5.58,5.58,0,0,1-.77,2.44,3.86,3.86,0,0,1-2,1.7,2.68,2.68,0,0,1-2.63-.52,3.51,3.51,0,0,1-.91-2.42,10.42,10.42,0,0,1,.92-4.63,10.15,10.15,0,0,1,11-5.91,8.16,8.16,0,0,1,1.41.35c.31.12.47.19.46.21s-.67-.21-1.9-.36a10.52,10.52,0,0,0-5.13.66,9.83,9.83,0,0,0-5.37,5.24,10.1,10.1,0,0,0-.85,4.41,3,3,0,0,0,.76,2.08,2.17,2.17,0,0,0,2.11.4,3.4,3.4,0,0,0,1.76-1.48,5.16,5.16,0,0,0,.7-2.21,6.49,6.49,0,0,0-1.19-4.22,7.83,7.83,0,0,0-3.15-2.52,10.81,10.81,0,0,0-3.46-.92,18.08,18.08,0,0,0-5.22.37C275.55,359.09,274.88,359.27,274.86,359.23Z" style="fill: rgb(255, 255, 255); transform-origin: 286.32px 363.569px;" id="el9eua2auu5t4" class="animable"></path><g id="elbnc2he28b77"><g style="opacity: 0.3; transform-origin: 315.17px 362.2px;" class="animable" id="elo0vnxyvnzle"><path d="M332.32,381.86c-4.16-2.35-8.23-4.16-12.58-6.13s-8.62-4.52-11.47-8.36c-5.37-7.24-4.76-17.69-10.25-24.83q.54,7.2,1.07,14.41c.33,4.4-.34,8.76,2.49,11.75,2.39,2.52,7.05,4.45,10.35,5.54,6.63,2.19,13.77,5.44,20.39,7.62" id="elq3ja2tjsl8" class="animable" style="transform-origin: 315.17px 362.2px;"></path></g></g><path d="M400,436.71s32.57,9,33.88,9.48c2,.69,1.63,7.88-1.42,7.76-1.45-.05-25,.88-28,.7s-12-3.73-12-3.73Z" style="fill: #F17300; transform-origin: 413.792px 445.692px;" id="el7kslbp7b0j" class="animable"></path><path d="M413.53,449.14a28.68,28.68,0,0,1,1.44-3.5,29.19,29.19,0,0,1,2.3-3,7.2,7.2,0,0,0-3.74,6.49Z" style="fill: rgb(38, 50, 56); transform-origin: 415.399px 445.89px;" id="el3e8hlagpfkc" class="animable"></path><path d="M410.13,447.6c.16,0,.49-1.51,1.36-3.21s1.89-2.89,1.78-3a8.15,8.15,0,0,0-3.14,6.22Z" style="fill: rgb(38, 50, 56); transform-origin: 411.704px 444.5px;" id="elojmpbwgg1gs" class="animable"></path><path d="M407,446.75a21.72,21.72,0,0,1,.76-3.44,22.86,22.86,0,0,1,1.77-3.05,6.11,6.11,0,0,0-2.53,6.49Z" style="fill: rgb(38, 50, 56); transform-origin: 408.181px 443.505px;" id="ellzupb25s74o" class="animable"></path><path d="M407.53,442.54a5.81,5.81,0,0,0,.35-2.42,12,12,0,0,0-.33-2.66,10.59,10.59,0,0,0-.49-1.51,1.72,1.72,0,0,0-.52-.8.88.88,0,0,0-1.12.06,1.41,1.41,0,0,0-.43.92,5,5,0,0,0,0,.86,6.72,6.72,0,0,0,.2,1.59,9.7,9.7,0,0,0,1,2.49,6.7,6.7,0,0,0,1.46,2c.08,0-.47-.81-1.12-2.14a10.64,10.64,0,0,1-.85-2.42,7.16,7.16,0,0,1-.16-1.49c0-.5,0-1.12.3-1.36a.32.32,0,0,1,.43,0,1.47,1.47,0,0,1,.36.57,12.9,12.9,0,0,1,.49,1.44,12.71,12.71,0,0,1,.43,2.54C407.59,441.61,407.44,442.53,407.53,442.54Z" style="fill: rgb(38, 50, 56); transform-origin: 406.433px 439.024px;" id="elzlxxtblq60o" class="animable"></path><path d="M407.49,442.21a4.57,4.57,0,0,0-2.1-.34,9.65,9.65,0,0,0-2.31.28,5.61,5.61,0,0,0-1.34.49,1.38,1.38,0,0,0-.73,1.49,1.65,1.65,0,0,0,1.17,1.17,3,3,0,0,0,1.46,0,5.46,5.46,0,0,0,2.12-1,5.66,5.66,0,0,0,1.51-1.49,16,16,0,0,0-1.73,1.17,5.74,5.74,0,0,1-2,.87,2.48,2.48,0,0,1-1.21,0,1.1,1.1,0,0,1-.79-.77.85.85,0,0,1,.48-.91,4.82,4.82,0,0,1,1.18-.46,10.48,10.48,0,0,1,2.2-.38C406.67,442.17,407.47,442.3,407.49,442.21Z" style="fill: rgb(38, 50, 56); transform-origin: 404.238px 443.624px;" id="eldskfndtwpq6" class="animable"></path><path d="M418.53,449.49a19.26,19.26,0,0,1,.65-2.94,17.78,17.78,0,0,1,1.59-2.55,4.69,4.69,0,0,0-2.24,5.49Z" style="fill: rgb(38, 50, 56); transform-origin: 419.547px 446.745px;" id="el2rve3fu06as" class="animable"></path><path d="M395.81,451a5.84,5.84,0,0,0,1.26.6,30.21,30.21,0,0,0,3.62,1.12,52.1,52.1,0,0,0,12.44,1.18c4.88-.06,9.28-.28,12.47-.41l3.77-.2a8.24,8.24,0,0,0,1.38-.14,6.6,6.6,0,0,0-1.39-.07l-3.77,0-12.46.24a58.31,58.31,0,0,1-12.35-1C397.66,451.69,395.85,450.89,395.81,451Z" style="fill: rgb(38, 50, 56); transform-origin: 413.28px 452.453px;" id="el0qu3inqz8l3c" class="animable"></path><path d="M394.85,451.74c0,.07.93-.45,2.44-1.11a11.28,11.28,0,0,1,6.16-1,9.8,9.8,0,0,1,5.33,3.16,19.17,19.17,0,0,0,1.87,1.92,10,10,0,0,0-1.59-2.18,13,13,0,0,0-2.16-2,7.74,7.74,0,0,0-3.37-1.42,10.79,10.79,0,0,0-6.41,1.21A8.33,8.33,0,0,0,394.85,451.74Z" style="fill: rgb(38, 50, 56); transform-origin: 402.75px 451.871px;" id="elo0wasi8167" class="animable"></path><path d="M365.39,427.72s-30.82,20.18-31.92,21c-1.66,1.25.24,7.22,3.12,6.19,1.36-.49,27.22-7.69,30-8.77S376.86,439,376.86,439Z" style="fill: #F17300; transform-origin: 354.856px 441.374px;" id="elcvxdixyxx86" class="animable"></path><path d="M356.24,443.68a7.21,7.21,0,0,0-5.54-5.05,28.34,28.34,0,0,1,3.11,2.16A30.26,30.26,0,0,1,356.24,443.68Z" style="fill: rgb(38, 50, 56); transform-origin: 353.47px 441.155px;" id="elng7zowjozn" class="animable"></path><path d="M359,441.18a8.17,8.17,0,0,0-4.87-5c-.08.14,1.27,1,2.6,2.32S358.86,441.26,359,441.18Z" style="fill: rgb(38, 50, 56); transform-origin: 356.563px 438.682px;" id="elumdezxi16x" class="animable"></path><path d="M361.78,439.4a5,5,0,0,0-1.34-3.39,5,5,0,0,0-3-2,23.73,23.73,0,0,1,2.61,2.37A21.92,21.92,0,0,1,361.78,439.4Z" style="fill: rgb(38, 50, 56); transform-origin: 359.61px 436.705px;" id="elqbk20vmain" class="animable"></path><path d="M360,435.57c.08,0-.34-.87-.69-2.31a12.56,12.56,0,0,1-.37-2.55,11.23,11.23,0,0,1,0-1.52,1.25,1.25,0,0,1,.17-.65.31.31,0,0,1,.42-.1c.35.14.53.74.7,1.22a7.73,7.73,0,0,1,.3,1.46,10.64,10.64,0,0,1-.08,2.57c-.21,1.46-.5,2.35-.42,2.38a6.48,6.48,0,0,0,.8-2.32,9.54,9.54,0,0,0,.2-2.67,7.54,7.54,0,0,0-.29-1.58,6.64,6.64,0,0,0-.3-.81,1.44,1.44,0,0,0-.7-.75.87.87,0,0,0-1.08.29,1.78,1.78,0,0,0-.25.92,11.22,11.22,0,0,0,.48,4.22A5.88,5.88,0,0,0,360,435.57Z" style="fill: rgb(38, 50, 56); transform-origin: 359.714px 431.964px;" id="eld4u3lvhhsyg" class="animable"></path><path d="M359.89,435.24c0,.08.76-.28,2-.59a11.14,11.14,0,0,1,2.21-.3,4.88,4.88,0,0,1,1.27.08.87.87,0,0,1,.74.72,1.12,1.12,0,0,1-.53,1,2.53,2.53,0,0,1-1.14.38,5.53,5.53,0,0,1-2.17-.22,14.58,14.58,0,0,0-2-.59,5.7,5.7,0,0,0,1.9,1,5.48,5.48,0,0,0,2.33.35,2.9,2.9,0,0,0,1.39-.44,1.62,1.62,0,0,0,.77-1.46,1.38,1.38,0,0,0-1.15-1.2,5.35,5.35,0,0,0-1.42-.06,9.83,9.83,0,0,0-2.29.43A4.63,4.63,0,0,0,359.89,435.24Z" style="fill: rgb(38, 50, 56); transform-origin: 363.276px 435.485px;" id="el0fsz2xox9udv" class="animable"></path><path d="M340.51,453.8c0,.05.52-.31.76-1.19a4.62,4.62,0,0,0-.58-3.35,12.87,12.87,0,0,0-1-1.54,6,6,0,0,0-1.05-1.12,1.82,1.82,0,0,0-1-.41c-.26,0-.39.05-.39.08s.55.05,1.12.63a6.62,6.62,0,0,1,.89,1.12,17.63,17.63,0,0,1,1,1.5,4.76,4.76,0,0,1,.68,3A11.17,11.17,0,0,1,340.51,453.8Z" style="fill: rgb(38, 50, 56); transform-origin: 339.309px 449.997px;" id="elntrblqc579" class="animable"></path><path d="M351.58,445.53a3.77,3.77,0,0,0-1.09-2.95,3.71,3.71,0,0,0-2.71-1.59,17.56,17.56,0,0,1,2.29,1.94A17.85,17.85,0,0,1,351.58,445.53Z" style="fill: rgb(38, 50, 56); transform-origin: 349.685px 443.26px;" id="els14wro3k798" class="animable"></path><path d="M373.69,440.07a9.45,9.45,0,0,0-1.36.92,39.23,39.23,0,0,1-3.8,2.33,49.72,49.72,0,0,1-6,2.69c-2.34.87-5,1.69-7.72,2.49-5.55,1.6-10.57,3.06-14.19,4.15L336.31,454a9.44,9.44,0,0,0-1.55.56,10.44,10.44,0,0,0,1.61-.35L340.7,453c3.65-1,8.68-2.4,14.23-4,2.77-.81,5.4-1.65,7.74-2.55a45.83,45.83,0,0,0,6.05-2.82,30.49,30.49,0,0,0,3.74-2.5A9.79,9.79,0,0,0,373.69,440.07Z" style="fill: rgb(38, 50, 56); transform-origin: 354.225px 447.315px;" id="elovhe4kuxgok" class="animable"></path><path d="M374.83,440.48a8.88,8.88,0,0,0-2.61-.7,10.84,10.84,0,0,0-6.48.8A7.65,7.65,0,0,0,363,443a13,13,0,0,0-1.45,2.58,9.71,9.71,0,0,0-.85,2.56,20.2,20.2,0,0,0,1.2-2.4,9.79,9.79,0,0,1,4.12-4.64,11.31,11.31,0,0,1,6.18-.89C373.8,440.34,374.81,440.56,374.83,440.48Z" style="fill: rgb(38, 50, 56); transform-origin: 367.765px 443.869px;" id="elblzsfgsofi" class="animable"></path><path d="M429.44,378.51s9.25,3.3,9.28,13.67c.08,19.85-40.12,41.74-40.12,41.74l-53.5-35.44-3.35-1.36S414,370,429.44,378.51Z" style="fill: rgb(38, 50, 56); transform-origin: 390.235px 405.389px;" id="elv9v5aq2zkf8" class="animable"></path><path d="M372.2,416.38a9.89,9.89,0,0,0,1.4-.94c.87-.64,2.12-1.58,3.65-2.77,3.07-2.36,7.23-5.72,11.72-9.57s8.43-7.46,11.23-10.13c1.4-1.33,2.52-2.43,3.29-3.2a9.43,9.43,0,0,0,1.14-1.23,9.77,9.77,0,0,0-1.29,1.08l-3.4,3.07c-2.87,2.59-6.85,6.16-11.33,10s-8.6,7.24-11.59,9.68l-3.55,2.9A10.58,10.58,0,0,0,372.2,416.38Z" style="fill: rgb(69, 90, 100); transform-origin: 388.415px 402.46px;" id="elr6bbovhwnj" class="animable"></path><path d="M414.34,385.93a13.29,13.29,0,0,0-9.74,2.87c.09.15,2-1.1,4.74-1.88S414.34,386.1,414.34,385.93Z" style="fill: rgb(69, 90, 100); transform-origin: 409.47px 387.334px;" id="elbm82zowfp45" class="animable"></path><path d="M409.73,382.8a8.18,8.18,0,0,0-4.84,6c.16,0,.74-1.61,2.09-3.26S409.82,382.94,409.73,382.8Z" style="fill: rgb(69, 90, 100); transform-origin: 407.312px 385.8px;" id="elm52hws10ukq" class="animable"></path><path d="M432.38,445.68c0-.06-.64-.19-1.38.42a4.92,4.92,0,0,0-1.54,3.1,6.09,6.09,0,0,0,.48,3.43c.38.81.8,1.19.85,1.15a9.65,9.65,0,0,0-.49-1.3,6.91,6.91,0,0,1-.3-3.2,5.36,5.36,0,0,1,1.26-2.9C431.83,445.79,432.39,445.77,432.38,445.68Z" style="fill: rgb(38, 50, 56); transform-origin: 430.886px 449.704px;" id="elgu0qkxinbyc" class="animable"></path><polygon points="417.13 346.06 398.08 394.36 316.05 395.7 314.53 391.26 343.28 390.22 357.1 347.37 417.13 346.06" style="fill: rgb(69, 90, 100); transform-origin: 365.83px 370.88px;" id="elij61wfa36m" class="animable"></polygon><path d="M378.82,367a3.66,3.66,0,0,1,3.95.43,3.17,3.17,0,0,1,.77,3.49,3.45,3.45,0,0,1-3,2.07,3.12,3.12,0,0,1-3.14-2.07,3.53,3.53,0,0,1,1.38-3.92" style="fill: rgb(235, 235, 235); transform-origin: 380.51px 369.804px;" id="elhrg9m2c3rx" class="animable"></path><path d="M403.66,436.34S328.08,386.76,325,385.73s-10.58-5.93-18.05-3.87-14.19,8.77-17.54,18.57c-1.92,5.6-2.82,15.15-3.25,22.32a33.15,33.15,0,0,0,7.75,23.6,21.09,21.09,0,0,0,9.42,6.69c.79.25,1.61.46,2.45.64,14.29,3.1,29-3.32,37-15.54l1.76-2.68s49.45,18.16,50.22,17.91Z" style="fill: rgb(38, 50, 56); transform-origin: 344.873px 417.907px;" id="elr3dodz9xrz" class="animable"></path><path d="M310.16,422.69a4.22,4.22,0,0,0,.41.18l1.24.49,4.79,1.85,17.81,6.71c7.56,2.82,16.62,6.18,26.79,9.88s21.43,7.75,33.47,11.82l.21.08.11-.21,5.91-11.28,3-5.75.11-.22-.21-.13-57.65-36.6-17.32-10.92-4.7-2.94-1.23-.75c-.28-.17-.43-.24-.43-.24l.4.29,1.2.79,4.65,3L346,399.83l57.56,36.74-.1-.36c-.95,1.83-2,3.78-3,5.75l-5.9,11.28.33-.13c-12-4.06-23.3-8.1-33.48-11.77l-26.83-9.76L316.67,425l-4.82-1.76-1.26-.44Z" style="fill: rgb(69, 90, 100); transform-origin: 357.085px 419.18px;" id="elh24kucps3ym" class="animable"></path><path d="M318,246.64c1.29-3.49,4.14-5,7.75-5.87a11.58,11.58,0,0,1,10.37,2.67c1.83,1.67,3.17,4,5.43,5,3.73,1.69,8.5-.78,12,1.29a5.28,5.28,0,0,1-3.4,9.78c2.43,1.14,2.88,4.8,1.21,6.9s-4.76,2.67-7.35,1.94a14.84,14.84,0,0,1-6.55-4.51c-1.82-2-3.42-4.15-5.4-6a11.49,11.49,0,0,0-7.12-3.38c-3.63-.14-7,2.31-8.89,5.4s-2.62,6.76-3.15,10.36-.93,7.26-2.32,10.62c-.16.4-.4.83-.81.92-.61.13-1.05-.54-1.29-1.11a53.27,53.27,0,0,1-4.26-20.3c-.05-4,.41-7.83,2.92-11s8.3-5.14,10.83-2.76" style="fill: rgb(38, 50, 56); transform-origin: 330.183px 261.122px;" id="elm3ycap91ju" class="animable"></path><path d="M309.48,262.77l-5.56,40.38a12.13,12.13,0,0,0,11,13.73h0A12.14,12.14,0,0,0,328,306.43c.41-3,.76-5.57.83-5.88,0,0,10.41.45,12.55-9.62,1-4.87,2.35-15.07,3.44-24.31a19.18,19.18,0,0,0-15.3-21l-1-.19C317.87,243.91,310.67,252.11,309.48,262.77Z" style="fill: rgb(255, 190, 157); transform-origin: 324.377px 281.087px;" id="elods4xo8e0v" class="animable"></path><path d="M328.82,300.41A24,24,0,0,1,316.41,294s1.66,7.88,11.91,9Z" style="fill: rgb(235, 153, 110); transform-origin: 322.615px 298.5px;" id="elr8644prrz4" class="animable"></path><path d="M340.47,272.8a1.46,1.46,0,0,1-1.68,1.17,1.39,1.39,0,0,1-1.22-1.59,1.46,1.46,0,0,1,1.68-1.18A1.4,1.4,0,0,1,340.47,272.8Z" style="fill: rgb(38, 50, 56); transform-origin: 339.02px 272.585px;" id="el0z95exo7tf6" class="animable"></path><path d="M341.61,271.14c-.22.16-1.15-.87-2.7-1.18s-2.85.25-3,0,.19-.4.76-.66a3.92,3.92,0,0,1,2.42-.25,3.83,3.83,0,0,1,2.1,1.17C341.62,270.7,341.71,271.08,341.61,271.14Z" style="fill: rgb(38, 50, 56); transform-origin: 338.761px 270.059px;" id="el87bna3okjxg" class="animable"></path><path d="M325.15,270.28a1.46,1.46,0,0,1-1.68,1.18,1.42,1.42,0,0,1-1.23-1.6,1.49,1.49,0,0,1,1.68-1.18A1.41,1.41,0,0,1,325.15,270.28Z" style="fill: rgb(38, 50, 56); transform-origin: 323.696px 270.072px;" id="elukho74zckte" class="animable"></path><path d="M326.3,268.39c-.22.15-1.15-.88-2.7-1.19s-2.85.25-3,0,.19-.4.76-.66a4,4,0,0,1,2.42-.25,4,4,0,0,1,2.11,1.17C326.31,268,326.4,268.32,326.3,268.39Z" style="fill: rgb(38, 50, 56); transform-origin: 323.451px 267.305px;" id="el9t77m2ws2j" class="animable"></path><path d="M329.63,281a10.05,10.05,0,0,1,2.61.05c.41,0,.8,0,.92-.23a2,2,0,0,0,0-1.22c-.18-1-.37-2.12-.57-3.26-.77-4.62-1.24-8.38-1.06-8.41s1,3.69,1.73,8.31c.18,1.14.36,2.22.52,3.26a2.3,2.3,0,0,1-.11,1.6,1,1,0,0,1-.76.44,2.46,2.46,0,0,1-.69,0A10.62,10.62,0,0,1,329.63,281Z" style="fill: rgb(38, 50, 56); transform-origin: 331.752px 274.747px;" id="elwmwragctd1g" class="animable"></path><path d="M324.85,281.18c.26,0-.08,1.72,1.12,3.2s3,1.66,3,1.9-.46.24-1.22.11a4.31,4.31,0,0,1-2.53-1.48,3.75,3.75,0,0,1-.83-2.67C324.47,281.52,324.74,281.14,324.85,281.18Z" style="fill: rgb(38, 50, 56); transform-origin: 326.674px 283.827px;" id="el2j04dai1u9i" class="animable"></path><path d="M327.91,262.38c-.23.4-1.74-.11-3.61-.26s-3.43.06-3.6-.37c-.07-.2.27-.54.94-.83a6.1,6.1,0,0,1,2.8-.4,6,6,0,0,1,2.7.88C327.75,261.8,328,262.2,327.91,262.38Z" style="fill: rgb(38, 50, 56); transform-origin: 324.309px 261.512px;" id="elpp1wu6jnxbo" class="animable"></path><path d="M341.93,266.54c-.34.3-1.33-.28-2.62-.56s-2.42-.23-2.59-.65c-.08-.2.16-.52.71-.76a3.71,3.71,0,0,1,2.25-.15,3.61,3.61,0,0,1,1.95,1.13C342,266,342.09,266.39,341.93,266.54Z" style="fill: rgb(38, 50, 56); transform-origin: 339.355px 265.468px;" id="elxm17lhp59uf" class="animable"></path><path d="M308.81,270.41c-.16-.11-6.53-3.44-7.69,3.51s6.06,6.68,6.1,6.48S308.81,270.41,308.81,270.41Z" style="fill: rgb(255, 190, 157); transform-origin: 304.902px 274.995px;" id="el1hp4r93jkez" class="animable"></path><path d="M305.54,277.41s-.13.07-.35.13a1.25,1.25,0,0,1-.91-.13,3,3,0,0,1-.94-2.92,4,4,0,0,1,.63-1.68A1.43,1.43,0,0,1,305,272a.63.63,0,0,1,.66.46c.06.2,0,.34,0,.35s.17-.09.16-.38a.79.79,0,0,0-.2-.48.88.88,0,0,0-.64-.29,1.72,1.72,0,0,0-1.44.86,4.22,4.22,0,0,0-.75,1.87c-.19,1.41.31,2.84,1.27,3.29a1.31,1.31,0,0,0,1.14,0C305.5,277.58,305.56,277.43,305.54,277.41Z" style="fill: rgb(235, 153, 110); transform-origin: 304.285px 274.735px;" id="elum99ujaiho" class="animable"></path><path d="M347.32,265a14.88,14.88,0,0,1-12.37-5.5c-2-2.58-3.33-5.95-6.22-7.51a8.39,8.39,0,0,0-6.45-.4,16.29,16.29,0,0,0-5.62,3.42c.92,5.52-1.53,11-3.92,16a2.79,2.79,0,0,1-1.13,1.43c-.94.47-2.06-.27-2.63-1.16a8.72,8.72,0,0,1-1-4.87,29.11,29.11,0,0,1,2.3-11.18,19.73,19.73,0,0,1,7.27-8.7,18.69,18.69,0,0,1,13.81-2.29,23,23,0,0,1,12.11,7.27,13.51,13.51,0,0,1,3.27,5.73" style="fill: rgb(38, 50, 56); transform-origin: 327.634px 258.189px;" id="elqywfh80e14k" class="animable"></path></g><g id="freepik--Plant--inject-2" class="animable animator-hidden" style="transform-origin: 74.032px 356.455px;"><path d="M67.46,427.85a2,2,0,0,1,.18-.42l.56-1.21a30.9,30.9,0,0,0,1.67-4.84c1.1-4.3,1.48-10.87-.15-18.67a99.07,99.07,0,0,0-3.46-12.55c-1.47-4.45-3.17-9.17-4.56-14.28a55.38,55.38,0,0,1-2.25-16.42c.21-5.81,1.93-11.61,3.82-17.38s3.84-11.43,4.42-17.11a26,26,0,0,0-3.13-15.8c-2.51-4.62-5.65-8.56-8-12.65a44,44,0,0,1-4.82-12.15,45.35,45.35,0,0,1-.3-18.83,35.59,35.59,0,0,1,2-6.65,2.65,2.65,0,0,1-.11.45l-.4,1.27a44.95,44.95,0,0,0-.73,23.66,43.44,43.44,0,0,0,4.83,12c2.35,4,5.51,8,8.06,12.63A26.64,26.64,0,0,1,68.28,325c-.59,5.78-2.56,11.47-4.44,17.24s-3.59,11.5-3.8,17.21a55,55,0,0,0,2.19,16.26c1.37,5.08,3.06,9.8,4.5,14.27a98.38,98.38,0,0,1,3.41,12.62c1.59,7.86,1.13,14.5,0,18.81a27.46,27.46,0,0,1-1.78,4.83c-.26.5-.47.89-.62,1.19A2.62,2.62,0,0,1,67.46,427.85Z" style="fill: rgb(38, 50, 56); transform-origin: 60.8816px 343.37px;" id="ele4awehalzkr" class="animable"></path><path d="M59.75,300.55s-4.79-15.3,3.8-24.26a.53.53,0,0,1,.91.26C64.92,279.08,65.49,286.78,59.75,300.55Z" style="fill: #F17300; transform-origin: 61.575px 288.335px;" id="eluwvoxg7uuuj" class="animable"></path><path d="M62.62,281.39a14.28,14.28,0,0,1-.33,2.82c-.31,2-.68,4.23-1.09,6.75s-.76,4.81-1.07,6.75a15,15,0,0,1-.51,2.8,12.27,12.27,0,0,1,.09-2.85c.16-1.75.47-4.15.9-6.79s.89-5,1.27-6.73A12.4,12.4,0,0,1,62.62,281.39Z" style="fill: rgb(38, 50, 56); transform-origin: 61.0979px 290.95px;" id="el0vuo3qzy6mfa" class="animable"></path><path d="M65.37,336.65S68.3,320.88,80.08,317a.53.53,0,0,1,.68.66C80,320.08,76.89,327.16,65.37,336.65Z" style="fill: #F17300; transform-origin: 73.0773px 326.81px;" id="elk52pq7c6gc" class="animable"></path><path d="M76.87,321.05a14.25,14.25,0,0,1-1.61,2.34c-1.18,1.58-2.58,3.42-4.12,5.46L67,334.32a15.43,15.43,0,0,1-1.76,2.23,12.25,12.25,0,0,1,1.41-2.48c1-1.47,2.35-3.45,4-5.58s3.14-4,4.27-5.36A12.36,12.36,0,0,1,76.87,321.05Z" style="fill: rgb(38, 50, 56); transform-origin: 71.055px 328.8px;" id="elv4izdei5o" class="animable"></path><path d="M62.19,376.2s-1.78-15.94,8.36-23.1a.53.53,0,0,1,.84.44C71.36,356.1,70.45,363.77,62.19,376.2Z" style="fill: #F17300; transform-origin: 66.7299px 364.6px;" id="elhciob4g6mt" class="animable"></path><path d="M68.66,357.93a13.46,13.46,0,0,1-.86,2.71c-.68,1.85-1.47,4-2.36,6.42l-2.33,6.42a14.8,14.8,0,0,1-1,2.65,12.8,12.8,0,0,1,.63-2.78c.49-1.69,1.25-4,2.18-6.5s1.84-4.75,2.53-6.36A12.51,12.51,0,0,1,68.66,357.93Z" style="fill: rgb(38, 50, 56); transform-origin: 65.385px 367.03px;" id="ell7nnwbh6rzr" class="animable"></path><path d="M71.06,416s-1.21-16,9.18-22.78a.53.53,0,0,1,.83.46C80.94,396.23,79.76,403.86,71.06,416Z" style="fill: #F17300; transform-origin: 76.0437px 404.563px;" id="elng96xibmj7f" class="animable"></path><path d="M78.18,398a13.85,13.85,0,0,1-1,2.68c-.75,1.82-1.62,4-2.59,6.32l-2.57,6.34A15.25,15.25,0,0,1,71,415.9a12.11,12.11,0,0,1,.73-2.75c.54-1.67,1.39-3.94,2.41-6.41s2-4.69,2.75-6.27A12.68,12.68,0,0,1,78.18,398Z" style="fill: rgb(38, 50, 56); transform-origin: 74.59px 406.95px;" id="el5mj19e2zz4y" class="animable"></path><path d="M52.87,287.11s-14.21-7.42-14.49-19.83a.53.53,0,0,1,.83-.46C41.32,268.28,47.17,273.31,52.87,287.11Z" style="fill: #F17300; transform-origin: 45.6247px 276.918px;" id="elqg2mpmpmtk" class="animable"></path><path d="M41.33,271.54a13.9,13.9,0,0,1,1.77,2.22l4,5.54,4,5.53a15.67,15.67,0,0,1,1.62,2.33,11.33,11.33,0,0,1-2-2.07c-1.13-1.34-2.62-3.26-4.18-5.43s-2.92-4.18-3.87-5.66A12.28,12.28,0,0,1,41.33,271.54Z" style="fill: rgb(38, 50, 56); transform-origin: 47.025px 279.35px;" id="el60lxru2aaln" class="animable"></path><path d="M68.13,320s-14.63-6.54-15.67-18.91a.53.53,0,0,1,.8-.5C55.46,301.88,61.61,306.55,68.13,320Z" style="fill: #F17300; transform-origin: 60.294px 310.257px;" id="elk67bxkl98b8" class="animable"></path><path d="M55.67,305.14a14.22,14.22,0,0,1,1.9,2.11l4.34,5.29,4.35,5.27A14.5,14.5,0,0,1,68,320a12.88,12.88,0,0,1-2.07-2c-1.21-1.28-2.81-3.1-4.5-5.17s-3.17-4-4.2-5.41A12.22,12.22,0,0,1,55.67,305.14Z" style="fill: rgb(38, 50, 56); transform-origin: 61.835px 312.57px;" id="el9jpvlq77py" class="animable"></path><path d="M59.71,356.64s-10.05-12.5-5.33-24a.53.53,0,0,1,.94-.09C56.67,334.76,60,341.71,59.71,356.64Z" style="fill: #F17300; transform-origin: 56.4234px 344.472px;" id="eln7dwsgioqh" class="animable"></path><path d="M55.37,337.75a13.86,13.86,0,0,1,.73,2.74c.42,1.93.91,4.19,1.46,6.69s1,4.75,1.47,6.67a15.67,15.67,0,0,1,.55,2.79,11.45,11.45,0,0,1-1-2.68c-.5-1.69-1.09-4-1.65-6.66s-1-5-1.28-6.72A13,13,0,0,1,55.37,337.75Z" style="fill: rgb(38, 50, 56); transform-origin: 57.4746px 347.195px;" id="el7yrmjseknjh" class="animable"></path><path d="M69.67,399.78S55.14,393,54.32,380.6a.53.53,0,0,1,.8-.49C57.3,381.48,63.37,386.25,69.67,399.78Z" style="fill: #F17300; transform-origin: 61.9944px 389.908px;" id="elrkq8dba2zc" class="animable"></path><path d="M57.45,384.73a14,14,0,0,1,1.87,2.14c1.22,1.55,2.66,3.36,4.25,5.36l4.26,5.35a15.68,15.68,0,0,1,1.72,2.26,11.87,11.87,0,0,1-2-2c-1.18-1.29-2.75-3.14-4.4-5.24S60,388.56,59,387.13A13.34,13.34,0,0,1,57.45,384.73Z" style="fill: rgb(38, 50, 56); transform-origin: 63.5px 392.285px;" id="elg7m0zswfkkp" class="animable"></path><path d="M98.6,336.73a1.55,1.55,0,0,1,0,.36c0,.28,0,.61,0,1,0,1-.1,2.27-.17,3.89-.19,3.42-.45,8.18-.76,13.89h0v0c-1,5.8-4,12.23-8,18.47-2.91,4.6-6,8.79-8.59,12.68a89.56,89.56,0,0,0-6.45,10.65,44.71,44.71,0,0,0-3,7.82c-.26.95-.45,1.7-.56,2.21a4,4,0,0,1-.21.77,3.93,3.93,0,0,1,.09-.79c.07-.52.23-1.28.45-2.25a41.72,41.72,0,0,1,2.86-8,85.88,85.88,0,0,1,6.37-10.77c2.61-3.92,5.65-8.11,8.55-12.68,4-6.22,6.88-12.55,8-18.26v0c.4-5.69.73-10.45,1-13.87.13-1.62.24-2.92.31-3.88,0-.4.08-.74.11-1A1.12,1.12,0,0,1,98.6,336.73Z" style="fill: rgb(38, 50, 56); transform-origin: 84.7352px 372.6px;" id="elhe4ddo003vp" class="animable"></path><path d="M90,373.2s6.15-14.81-1.59-24.51a.53.53,0,0,0-.93.18C86.75,351.35,85.48,359,90,373.2Z" style="fill: #F17300; transform-origin: 89.5293px 360.842px;" id="elm9hkh4amm2m" class="animable"></path><path d="M88.83,353.86a13,13,0,0,1,.49,2.8c.22,1.74.46,4.15.65,6.82s.28,5.09.28,6.84a11.45,11.45,0,0,1-.17,2.84,14.71,14.71,0,0,1-.25-2.82c-.13-2-.29-4.27-.46-6.82s-.34-4.86-.47-6.82A14.44,14.44,0,0,1,88.83,353.86Z" style="fill: rgb(38, 50, 56); transform-origin: 89.5323px 363.51px;" id="el9vtvurypqjb" class="animable"></path><g id="el7j1eyz1ltdb"><g style="opacity: 0.3; transform-origin: 89.5293px 360.842px;" class="animable" id="elo06hk8rkv9r"><path d="M90,373.2s6.15-14.81-1.59-24.51a.53.53,0,0,0-.93.18C86.75,351.35,85.48,359,90,373.2Z" id="elkuhakvc40k" class="animable" style="transform-origin: 89.5293px 360.842px;"></path></g></g><path d="M70.9,408.88s4.93-15.25-3.57-24.29a.53.53,0,0,0-.91.25C65.93,387.36,65.29,395.05,70.9,408.88Z" style="fill: #F17300; transform-origin: 69.2166px 396.649px;" id="eldybd018jc9f" class="animable"></path><path d="M68.21,389.69a12.66,12.66,0,0,1,.71,2.76c.36,1.71.8,4.09,1.21,6.74s.69,5.05.83,6.8a11.72,11.72,0,0,1,.06,2.85,15.84,15.84,0,0,1-.48-2.8c-.29-2-.63-4.23-1-6.76s-.73-4.81-1-6.76A14.48,14.48,0,0,1,68.21,389.69Z" style="fill: rgb(38, 50, 56); transform-origin: 69.6448px 399.265px;" id="elhug8e9tsy4" class="animable"></path><g id="ele28sw247aji"><g style="opacity: 0.3; transform-origin: 69.2166px 396.649px;" class="animable" id="elik493ynzymc"><path d="M70.9,408.88s4.93-15.25-3.57-24.29a.53.53,0,0,0-.91.25C65.93,387.36,65.29,395.05,70.9,408.88Z" id="eldr5sos8y0ri" class="animable" style="transform-origin: 69.2166px 396.649px;"></path></g></g><path d="M97.78,355.11s13.14-9.2,11.81-21.54a.53.53,0,0,0-.88-.35C106.81,335,101.65,340.69,97.78,355.11Z" style="fill: #F17300; transform-origin: 103.732px 344.098px;" id="elqx9h5b3nzmh" class="animable"></path><g id="eluv02l5o00dc"><g style="opacity: 0.3; transform-origin: 103.732px 344.098px;" class="animable" id="eli8hfqezptih"><path d="M97.78,355.11s13.14-9.2,11.81-21.54a.53.53,0,0,0-.88-.35C106.81,335,101.65,340.69,97.78,355.11Z" id="elu87lt4mido" class="animable" style="transform-origin: 103.732px 344.098px;"></path></g></g><path d="M107.22,338.18a12.84,12.84,0,0,1-1.09,2.62c-.75,1.59-1.84,3.75-3.11,6.11s-2.49,4.45-3.44,5.93a10.93,10.93,0,0,1-1.67,2.3,15.92,15.92,0,0,1,1.31-2.52l3.27-6,3.26-6A13.83,13.83,0,0,1,107.22,338.18Z" style="fill: rgb(38, 50, 56); transform-origin: 102.565px 346.66px;" id="el8asy7o8bmaf" class="animable"></path><path d="M76.19,393.76S92,391.29,96.28,379.63a.53.53,0,0,0-.64-.7C93.17,379.63,86,382.52,76.19,393.76Z" style="fill: #F17300; transform-origin: 86.2527px 386.335px;" id="elamh6t3htrik" class="animable"></path><g id="eltok69tns1t"><g style="opacity: 0.3; transform-origin: 86.2527px 386.335px;" class="animable" id="elu3qdadq9vkg"><path d="M76.19,393.76S92,391.29,96.28,379.63a.53.53,0,0,0-.64-.7C93.17,379.63,86,382.52,76.19,393.76Z" id="elasc4epj3cr8" class="animable" style="transform-origin: 86.2527px 386.335px;"></path></g></g><path d="M92.12,382.72A13.4,13.4,0,0,1,90,384.59c-1.37,1.1-3.3,2.56-5.48,4.11s-4.2,2.9-5.69,3.82a11.83,11.83,0,0,1-2.52,1.33,15.63,15.63,0,0,1,2.28-1.69l5.59-3.94,5.57-4A13.52,13.52,0,0,1,92.12,382.72Z" style="fill: rgb(38, 50, 56); transform-origin: 84.215px 388.285px;" id="ely9pr8ot6ro" class="animable"></path><polygon points="61.08 422.92 56.46 454.02 85.26 454.02 81.52 422.92 61.08 422.92" style="fill: rgb(69, 90, 100); transform-origin: 70.86px 438.47px;" id="el9y1od13ljle" class="animable"></polygon><path d="M82.68,432.55c0,.17-5.2.3-11.62.3s-11.61-.13-11.61-.3a114.58,114.58,0,0,1,11.61-.3A114.71,114.71,0,0,1,82.68,432.55Z" style="fill: rgb(38, 50, 56); transform-origin: 71.065px 432.532px;" id="elglgh2mt7ri8" class="animable"></path><path d="M83.25,435c0,.16-5.37.3-12,.3s-12-.14-12-.3,5.37-.3,12-.3S83.25,434.86,83.25,435Z" style="fill: rgb(38, 50, 56); transform-origin: 71.25px 435px;" id="elpfbe8wyq47" class="animable"></path></g><defs>     <filter id="active" height="200%">         <feMorphology in="SourceAlpha" result="DILATED" operator="dilate" radius="2"></feMorphology>                <feFlood flood-color="#32DFEC" flood-opacity="1" result="PINK"></feFlood>        <feComposite in="PINK" in2="DILATED" operator="in" result="OUTLINE"></feComposite>        <feMerge>            <feMergeNode in="OUTLINE"></feMergeNode>            <feMergeNode in="SourceGraphic"></feMergeNode>        </feMerge>    </filter>    <filter id="hover" height="200%">        <feMorphology in="SourceAlpha" result="DILATED" operator="dilate" radius="2"></feMorphology>                <feFlood flood-color="#ff0000" flood-opacity="0.5" result="PINK"></feFlood>        <feComposite in="PINK" in2="DILATED" operator="in" result="OUTLINE"></feComposite>        <feMerge>            <feMergeNode in="OUTLINE"></feMergeNode>            <feMergeNode in="SourceGraphic"></feMergeNode>        </feMerge>            <feColorMatrix type="matrix" values="0   0   0   0   0                0   1   0   0   0                0   0   0   0   0                0   0   0   1   0 "></feColorMatrix>    </filter></defs></svg>